# MagicaVoxel @ Ephtracy

# material
mtllib bed.mtl
usemtl palette

# normals
vn -1 0 0
vn 1 0 0
vn 0 0 1
vn 0 0 -1
vn 0 -1 0
vn 0 1 0

# texcoords
vt 0.00585938 0.5
vt 0.306641 0.5
vt 0.505859 0.5
vt 0.982422 0.5
vt 0.986328 0.5

# verts
v -46 0 63
v -46 0 -63
v -46 12 59
v -46 12 -59
v -46 30 63
v -46 30 59
v -46 44 -59
v -46 44 -63
v -45 13 59
v -45 13 -59
v -45 22 59
v -45 22 -59
v -44 12 59
v -44 12 -59
v -44 13 59
v -44 13 -59
v -41 22 57
v -41 22 -32
v -41 22 -43
v -41 27 57
v -41 27 -32
v -41 28 -32
v -41 28 -43
v -39 12 61
v -39 12 60
v -39 12 -60
v -39 12 -61
v -39 13 63
v -39 13 62
v -39 13 61
v -39 13 60
v -39 13 -60
v -39 13 -61
v -39 21 62
v -39 22 63
v -39 22 62
v -39 22 -43
v -39 22 -56
v -39 23 -43
v -39 23 -56
v -36 22 -56
v -36 22 -58
v -36 23 -43
v -36 23 -56
v -36 23 -58
v -36 24 -43
v -36 24 -56
v -35 24 -43
v -35 24 -56
v -35 26 -43
v -35 26 -56
v -34 23 -56
v -34 23 -57
v -34 24 -56
v -34 24 -57
v 5 22 -43
v 5 22 -56
v 5 23 -43
v 5 23 -56
v 9 22 -56
v 9 22 -58
v 9 23 -43
v 9 23 -55
v 9 23 -56
v 9 23 -58
v 9 24 -43
v 9 24 -55
v 10 23 -55
v 10 23 -57
v 10 24 -43
v 10 24 -55
v 10 24 -56
v 10 24 -57
v 10 26 -43
v 10 26 -56
v 40 12 63
v 40 12 60
v 40 12 -60
v 40 12 -62
v 40 13 62
v 40 13 61
v 40 13 60
v 40 13 -60
v 40 13 -62
v 40 21 62
v 40 22 62
v 40 22 59
v 40 22 -59
v 40 22 -62
v 40 30 63
v 40 30 59
v 40 42 -62
v 40 42 -63
v 40 44 -59
v 40 44 -63
v -40 12 63
v -40 12 60
v -40 12 -60
v -40 12 -62
v -40 13 62
v -40 13 61
v -40 13 60
v -40 13 -60
v -40 13 -62
v -40 21 62
v -40 22 62
v -40 22 59
v -40 22 -59
v -40 22 -62
v -40 30 63
v -40 30 59
v -40 42 -62
v -40 42 -63
v -40 44 -59
v -40 44 -63
v -10 23 -55
v -10 23 -57
v -10 24 -43
v -10 24 -55
v -10 24 -56
v -10 24 -57
v -10 26 -43
v -10 26 -56
v -9 22 -56
v -9 22 -58
v -9 23 -43
v -9 23 -55
v -9 23 -56
v -9 23 -58
v -9 24 -43
v -9 24 -55
v -5 22 -43
v -5 22 -56
v -5 23 -43
v -5 23 -56
v 34 23 -56
v 34 23 -57
v 34 24 -56
v 34 24 -57
v 35 24 -43
v 35 24 -56
v 35 26 -43
v 35 26 -56
v 36 22 -56
v 36 22 -58
v 36 23 -43
v 36 23 -56
v 36 23 -58
v 36 24 -43
v 36 24 -56
v 39 12 61
v 39 12 60
v 39 12 -60
v 39 12 -61
v 39 13 63
v 39 13 62
v 39 13 61
v 39 13 60
v 39 13 -60
v 39 13 -61
v 39 21 62
v 39 22 63
v 39 22 62
v 39 22 -43
v 39 22 -56
v 39 23 -43
v 39 23 -56
v 41 22 57
v 41 22 -32
v 41 22 -43
v 41 27 57
v 41 27 -32
v 41 28 -32
v 41 28 -43
v 44 12 59
v 44 12 -59
v 44 13 59
v 44 13 -59
v 45 13 59
v 45 13 -59
v 45 22 59
v 45 22 -59
v 46 0 63
v 46 0 -63
v 46 12 59
v 46 12 -59
v 46 30 63
v 46 30 59
v 46 44 -59
v 46 44 -63
v -46 0 63
v -46 30 63
v -40 12 63
v -40 30 63
v -39 13 63
v -39 22 63
v 39 13 63
v 39 22 63
v 40 12 63
v 40 30 63
v 46 0 63
v 46 30 63
v -40 13 62
v -40 21 62
v -40 22 62
v -39 13 62
v -39 21 62
v -39 22 62
v 39 13 62
v 39 21 62
v 39 22 62
v 40 13 62
v 40 21 62
v 40 22 62
v -39 12 61
v -39 13 61
v 39 12 61
v 39 13 61
v -40 12 60
v -40 13 60
v -39 12 60
v -39 13 60
v 39 12 60
v 39 13 60
v 40 12 60
v 40 13 60
v -41 22 57
v -41 27 57
v 41 22 57
v 41 27 57
v -41 27 -32
v -41 28 -32
v 41 27 -32
v 41 28 -32
v -46 12 -59
v -46 44 -59
v -45 13 -59
v -45 22 -59
v -44 12 -59
v -44 13 -59
v -40 22 -59
v -40 44 -59
v 40 22 -59
v 40 44 -59
v 44 12 -59
v 44 13 -59
v 45 13 -59
v 45 22 -59
v 46 12 -59
v 46 44 -59
v -40 12 -62
v -40 13 -62
v -40 22 -62
v -40 42 -62
v 40 12 -62
v 40 13 -62
v 40 22 -62
v 40 42 -62
v -46 12 59
v -46 30 59
v -45 13 59
v -45 22 59
v -44 12 59
v -44 13 59
v -40 22 59
v -40 30 59
v 40 22 59
v 40 30 59
v 44 12 59
v 44 13 59
v 45 13 59
v 45 22 59
v 46 12 59
v 46 30 59
v -41 22 -43
v -41 28 -43
v -39 22 -43
v -39 23 -43
v -36 23 -43
v -36 24 -43
v -35 24 -43
v -35 26 -43
v -10 24 -43
v -10 26 -43
v -9 23 -43
v -9 24 -43
v -5 22 -43
v -5 23 -43
v 5 22 -43
v 5 23 -43
v 9 23 -43
v 9 24 -43
v 10 24 -43
v 10 26 -43
v 35 24 -43
v 35 26 -43
v 36 23 -43
v 36 24 -43
v 39 22 -43
v 39 23 -43
v 41 22 -43
v 41 28 -43
v -10 23 -55
v -10 24 -55
v -9 23 -55
v -9 24 -55
v 9 23 -55
v 9 24 -55
v 10 23 -55
v 10 24 -55
v -39 22 -56
v -39 23 -56
v -36 22 -56
v -36 23 -56
v -36 24 -56
v -35 24 -56
v -35 26 -56
v -34 23 -56
v -34 24 -56
v -10 24 -56
v -10 26 -56
v -9 22 -56
v -9 23 -56
v -5 22 -56
v -5 23 -56
v 5 22 -56
v 5 23 -56
v 9 22 -56
v 9 23 -56
v 10 24 -56
v 10 26 -56
v 34 23 -56
v 34 24 -56
v 35 24 -56
v 35 26 -56
v 36 22 -56
v 36 23 -56
v 36 24 -56
v 39 22 -56
v 39 23 -56
v -34 23 -57
v -34 24 -57
v -10 23 -57
v -10 24 -57
v 10 23 -57
v 10 24 -57
v 34 23 -57
v 34 24 -57
v -36 22 -58
v -36 23 -58
v -9 22 -58
v -9 23 -58
v 9 22 -58
v 9 23 -58
v 36 22 -58
v 36 23 -58
v -40 12 -60
v -40 13 -60
v -39 12 -60
v -39 13 -60
v 39 12 -60
v 39 13 -60
v 40 12 -60
v 40 13 -60
v -39 12 -61
v -39 13 -61
v 39 12 -61
v 39 13 -61
v -46 0 -63
v -46 44 -63
v -40 42 -63
v -40 44 -63
v 40 42 -63
v 40 44 -63
v 46 0 -63
v 46 44 -63
v -46 0 63
v 46 0 63
v -45 0 62
v 45 0 62
v -45 0 -62
v 45 0 -62
v -46 0 -63
v 46 0 -63
v -39 13 63
v 39 13 63
v -40 13 62
v -39 13 62
v 39 13 62
v 40 13 62
v -40 13 61
v -39 13 61
v 39 13 61
v 40 13 61
v -40 13 60
v -39 13 60
v 39 13 60
v 40 13 60
v -45 13 59
v -44 13 59
v 44 13 59
v 45 13 59
v -45 13 -59
v -44 13 -59
v 44 13 -59
v 45 13 -59
v -40 13 -60
v -39 13 -60
v 39 13 -60
v 40 13 -60
v -39 13 -61
v 39 13 -61
v -40 13 -62
v 40 13 -62
v -40 12 63
v 40 12 63
v -39 12 61
v 39 12 61
v -40 12 60
v -39 12 60
v 39 12 60
v 40 12 60
v -46 12 59
v -44 12 59
v 44 12 59
v 46 12 59
v -46 12 -59
v -44 12 -59
v 44 12 -59
v 46 12 -59
v -40 12 -60
v -39 12 -60
v 39 12 -60
v 40 12 -60
v -39 12 -61
v 39 12 -61
v -40 12 -62
v 40 12 -62
v -39 22 63
v 39 22 63
v -40 22 62
v -39 22 62
v 39 22 62
v 40 22 62
v -45 22 59
v -40 22 59
v 40 22 59
v 45 22 59
v -41 22 57
v 41 22 57
v -41 22 -32
v 41 22 -32
v -41 22 -43
v -39 22 -43
v -5 22 -43
v 5 22 -43
v 39 22 -43
v 41 22 -43
v -39 22 -56
v -36 22 -56
v -9 22 -56
v -5 22 -56
v 5 22 -56
v 9 22 -56
v 36 22 -56
v 39 22 -56
v -36 22 -58
v -9 22 -58
v 9 22 -58
v 36 22 -58
v -45 22 -59
v -40 22 -59
v 40 22 -59
v 45 22 -59
v -40 22 -62
v 40 22 -62
v -39 23 -43
v -36 23 -43
v -9 23 -43
v -5 23 -43
v 5 23 -43
v 9 23 -43
v 36 23 -43
v 39 23 -43
v -10 23 -55
v -9 23 -55
v 9 23 -55
v 10 23 -55
v -39 23 -56
v -36 23 -56
v -34 23 -56
v -9 23 -56
v -5 23 -56
v 5 23 -56
v 9 23 -56
v 34 23 -56
v 36 23 -56
v 39 23 -56
v -34 23 -57
v -10 23 -57
v 10 23 -57
v 34 23 -57
v -36 23 -58
v -9 23 -58
v 9 23 -58
v 36 23 -58
v -36 24 -43
v -35 24 -43
v -10 24 -43
v -9 24 -43
v 9 24 -43
v 10 24 -43
v 35 24 -43
v 36 24 -43
v -10 24 -55
v -9 24 -55
v 9 24 -55
v 10 24 -55
v -36 24 -56
v -35 24 -56
v -34 24 -56
v -10 24 -56
v 10 24 -56
v 34 24 -56
v 35 24 -56
v 36 24 -56
v -34 24 -57
v -10 24 -57
v 10 24 -57
v 34 24 -57
v -35 26 -43
v -10 26 -43
v 10 26 -43
v 35 26 -43
v -35 26 -56
v -10 26 -56
v 10 26 -56
v 35 26 -56
v -41 27 57
v 41 27 57
v -41 27 -32
v 41 27 -32
v -41 28 -32
v 41 28 -32
v -41 28 -43
v 41 28 -43
v -46 30 63
v -40 30 63
v 40 30 63
v 46 30 63
v -46 30 59
v -40 30 59
v 40 30 59
v 46 30 59
v -40 42 -62
v 40 42 -62
v -40 42 -63
v 40 42 -63
v -46 44 -59
v -40 44 -59
v 40 44 -59
v 46 44 -59
v -46 44 -63
v -40 44 -63
v 40 44 -63
v 46 44 -63

# faces
f 3/3/1 2/3/1 1/3/1
f 4/3/1 2/3/1 3/3/1
f 5/3/1 3/3/1 1/3/1
f 6/3/1 3/3/1 5/3/1
f 7/3/1 2/3/1 4/3/1
f 8/3/1 2/3/1 7/3/1
f 11/1/1 10/1/1 9/1/1
f 12/1/1 10/1/1 11/1/1
f 15/3/1 14/3/1 13/3/1
f 16/3/1 14/3/1 15/3/1
f 20/4/1 18/4/1 17/4/1
f 21/5/1 19/5/1 18/5/1
f 21/4/1 18/4/1 20/4/1
f 22/5/1 19/5/1 21/5/1
f 23/5/1 19/5/1 22/5/1
f 30/3/1 25/3/1 24/3/1
f 31/3/1 25/3/1 30/3/1
f 32/2/1 27/2/1 26/2/1
f 33/2/1 27/2/1 32/2/1
f 34/1/1 29/1/1 28/1/1
f 35/1/1 34/1/1 28/1/1
f 36/1/1 34/1/1 35/1/1
f 39/1/1 38/1/1 37/1/1
f 40/1/1 38/1/1 39/1/1
f 44/1/1 42/1/1 41/1/1
f 45/1/1 42/1/1 44/1/1
f 46/1/1 44/1/1 43/1/1
f 47/1/1 44/1/1 46/1/1
f 50/1/1 49/1/1 48/1/1
f 51/1/1 49/1/1 50/1/1
f 54/1/1 53/1/1 52/1/1
f 55/1/1 53/1/1 54/1/1
f 58/1/1 57/1/1 56/1/1
f 59/1/1 57/1/1 58/1/1
f 64/1/1 61/1/1 60/1/1
f 65/1/1 61/1/1 64/1/1
f 66/1/1 63/1/1 62/1/1
f 67/1/1 63/1/1 66/1/1
f 71/1/1 69/1/1 68/1/1
f 72/1/1 69/1/1 71/1/1
f 73/1/1 69/1/1 72/1/1
f 74/1/1 71/1/1 70/1/1
f 74/1/1 72/1/1 71/1/1
f 75/1/1 72/1/1 74/1/1
f 80/3/1 77/3/1 76/3/1
f 81/3/1 77/3/1 80/3/1
f 82/3/1 77/3/1 81/3/1
f 83/2/1 79/2/1 78/2/1
f 84/2/1 79/2/1 83/2/1
f 85/3/1 80/3/1 76/3/1
f 86/3/1 85/3/1 76/3/1
f 90/3/1 86/3/1 76/3/1
f 90/3/1 87/3/1 86/3/1
f 91/3/1 87/3/1 90/3/1
f 92/3/1 89/3/1 88/3/1
f 94/3/1 92/3/1 88/3/1
f 94/3/1 93/3/1 92/3/1
f 95/3/1 93/3/1 94/3/1
f 96/3/2 97/3/2 100/3/2
f 100/3/2 97/3/2 101/3/2
f 101/3/2 97/3/2 102/3/2
f 98/2/2 99/2/2 103/2/2
f 103/2/2 99/2/2 104/2/2
f 96/3/2 100/3/2 105/3/2
f 96/3/2 105/3/2 106/3/2
f 96/3/2 106/3/2 110/3/2
f 106/3/2 107/3/2 110/3/2
f 110/3/2 107/3/2 111/3/2
f 108/3/2 109/3/2 112/3/2
f 108/3/2 112/3/2 114/3/2
f 112/3/2 113/3/2 114/3/2
f 114/3/2 113/3/2 115/3/2
f 116/1/2 117/1/2 119/1/2
f 119/1/2 117/1/2 120/1/2
f 120/1/2 117/1/2 121/1/2
f 118/1/2 119/1/2 122/1/2
f 119/1/2 120/1/2 122/1/2
f 122/1/2 120/1/2 123/1/2
f 124/1/2 125/1/2 128/1/2
f 128/1/2 125/1/2 129/1/2
f 126/1/2 127/1/2 130/1/2
f 130/1/2 127/1/2 131/1/2
f 132/1/2 133/1/2 134/1/2
f 134/1/2 133/1/2 135/1/2
f 136/1/2 137/1/2 138/1/2
f 138/1/2 137/1/2 139/1/2
f 140/1/2 141/1/2 142/1/2
f 142/1/2 141/1/2 143/1/2
f 144/1/2 145/1/2 147/1/2
f 147/1/2 145/1/2 148/1/2
f 146/1/2 147/1/2 149/1/2
f 149/1/2 147/1/2 150/1/2
f 151/3/2 152/3/2 157/3/2
f 157/3/2 152/3/2 158/3/2
f 153/2/2 154/2/2 159/2/2
f 159/2/2 154/2/2 160/2/2
f 155/1/2 156/1/2 161/1/2
f 155/1/2 161/1/2 162/1/2
f 162/1/2 161/1/2 163/1/2
f 164/1/2 165/1/2 166/1/2
f 166/1/2 165/1/2 167/1/2
f 168/4/2 169/4/2 171/4/2
f 169/5/2 170/5/2 172/5/2
f 171/4/2 169/4/2 172/4/2
f 172/5/2 170/5/2 173/5/2
f 173/5/2 170/5/2 174/5/2
f 175/3/2 176/3/2 177/3/2
f 177/3/2 176/3/2 178/3/2
f 179/1/2 180/1/2 181/1/2
f 181/1/2 180/1/2 182/1/2
f 183/3/2 184/3/2 185/3/2
f 185/3/2 184/3/2 186/3/2
f 183/3/2 185/3/2 187/3/2
f 187/3/2 185/3/2 188/3/2
f 186/3/2 184/3/2 189/3/2
f 189/3/2 184/3/2 190/3/2
f 193/3/3 192/3/3 191/3/3
f 194/3/3 192/3/3 193/3/3
f 197/1/3 196/1/3 195/1/3
f 198/1/3 196/1/3 197/1/3
f 199/3/3 193/3/3 191/3/3
f 201/3/3 199/3/3 191/3/3
f 201/3/3 200/3/3 199/3/3
f 202/3/3 200/3/3 201/3/3
f 206/3/3 204/3/3 203/3/3
f 207/1/3 205/1/3 204/1/3
f 207/3/3 204/3/3 206/3/3
f 208/1/3 205/1/3 207/1/3
f 212/3/3 210/3/3 209/3/3
f 213/1/3 211/1/3 210/1/3
f 213/3/3 210/3/3 212/3/3
f 214/1/3 211/1/3 213/1/3
f 217/3/3 216/3/3 215/3/3
f 218/3/3 216/3/3 217/3/3
f 221/3/3 220/3/3 219/3/3
f 222/3/3 220/3/3 221/3/3
f 225/3/3 224/3/3 223/3/3
f 226/3/3 224/3/3 225/3/3
f 229/4/3 228/4/3 227/4/3
f 230/4/3 228/4/3 229/4/3
f 233/5/3 232/5/3 231/5/3
f 234/5/3 232/5/3 233/5/3
f 237/3/3 236/3/3 235/3/3
f 238/3/3 236/3/3 237/3/3
f 239/3/3 237/3/3 235/3/3
f 240/3/3 237/3/3 239/3/3
f 241/3/3 236/3/3 238/3/3
f 242/3/3 236/3/3 241/3/3
f 247/3/3 246/3/3 245/3/3
f 248/3/3 244/3/3 243/3/3
f 249/3/3 247/3/3 245/3/3
f 249/3/3 248/3/3 247/3/3
f 250/3/3 244/3/3 248/3/3
f 250/3/3 248/3/3 249/3/3
f 255/3/3 252/3/3 251/3/3
f 256/3/3 252/3/3 255/3/3
f 257/3/3 254/3/3 253/3/3
f 258/3/3 254/3/3 257/3/3
f 259/3/4 260/3/4 261/3/4
f 261/3/4 260/3/4 262/3/4
f 259/3/4 261/3/4 263/3/4
f 263/3/4 261/3/4 264/3/4
f 262/3/4 260/3/4 265/3/4
f 265/3/4 260/3/4 266/3/4
f 269/3/4 270/3/4 271/3/4
f 267/3/4 268/3/4 272/3/4
f 269/3/4 271/3/4 273/3/4
f 271/3/4 272/3/4 273/3/4
f 272/3/4 268/3/4 274/3/4
f 273/3/4 272/3/4 274/3/4
f 275/5/4 276/5/4 277/5/4
f 277/5/4 276/5/4 278/5/4
f 278/5/4 276/5/4 279/5/4
f 279/5/4 276/5/4 280/5/4
f 280/5/4 276/5/4 281/5/4
f 281/5/4 276/5/4 282/5/4
f 282/5/4 276/5/4 284/5/4
f 283/5/4 284/5/4 286/5/4
f 285/5/4 286/5/4 288/5/4
f 287/5/4 288/5/4 289/5/4
f 288/5/4 286/5/4 290/5/4
f 289/5/4 288/5/4 290/5/4
f 290/5/4 286/5/4 291/5/4
f 286/5/4 284/5/4 292/5/4
f 291/5/4 286/5/4 292/5/4
f 292/5/4 284/5/4 293/5/4
f 284/5/4 276/5/4 294/5/4
f 293/5/4 284/5/4 294/5/4
f 294/5/4 276/5/4 296/5/4
f 295/5/4 296/5/4 298/5/4
f 297/5/4 298/5/4 300/5/4
f 299/5/4 300/5/4 301/5/4
f 296/5/4 276/5/4 302/5/4
f 301/5/4 300/5/4 302/5/4
f 298/5/4 296/5/4 302/5/4
f 300/5/4 298/5/4 302/5/4
f 303/1/4 304/1/4 305/1/4
f 305/1/4 304/1/4 306/1/4
f 307/1/4 308/1/4 309/1/4
f 309/1/4 308/1/4 310/1/4
f 311/1/4 312/1/4 313/1/4
f 313/1/4 312/1/4 314/1/4
f 314/1/4 315/1/4 316/1/4
f 314/1/4 316/1/4 318/1/4
f 316/1/4 317/1/4 318/1/4
f 318/1/4 317/1/4 319/1/4
f 319/1/4 317/1/4 320/1/4
f 320/1/4 317/1/4 321/1/4
f 322/1/4 323/1/4 324/1/4
f 324/1/4 323/1/4 325/1/4
f 326/1/4 327/1/4 328/1/4
f 328/1/4 327/1/4 329/1/4
f 330/1/4 331/1/4 333/1/4
f 333/1/4 331/1/4 334/1/4
f 332/1/4 333/1/4 334/1/4
f 334/1/4 331/1/4 335/1/4
f 332/1/4 334/1/4 337/1/4
f 337/1/4 334/1/4 338/1/4
f 336/1/4 337/1/4 339/1/4
f 339/1/4 337/1/4 340/1/4
f 341/1/4 342/1/4 343/1/4
f 343/1/4 342/1/4 344/1/4
f 345/1/4 346/1/4 347/1/4
f 347/1/4 346/1/4 348/1/4
f 349/1/4 350/1/4 351/1/4
f 351/1/4 350/1/4 352/1/4
f 353/1/4 354/1/4 355/1/4
f 355/1/4 354/1/4 356/1/4
f 357/2/4 358/2/4 359/2/4
f 359/2/4 358/2/4 360/2/4
f 361/2/4 362/2/4 363/2/4
f 363/2/4 362/2/4 364/2/4
f 365/2/4 366/2/4 367/2/4
f 367/2/4 366/2/4 368/2/4
f 369/3/4 370/3/4 371/3/4
f 371/3/4 370/3/4 372/3/4
f 369/3/4 371/3/4 373/3/4
f 369/3/4 373/3/4 375/3/4
f 373/3/4 374/3/4 375/3/4
f 375/3/4 374/3/4 376/3/4
f 379/3/5 378/3/5 377/3/5
f 380/3/5 378/3/5 379/3/5
f 381/3/5 379/3/5 377/3/5
f 381/5/5 380/5/5 379/5/5
f 382/3/5 378/3/5 380/3/5
f 382/5/5 380/5/5 381/5/5
f 383/3/5 381/3/5 377/3/5
f 383/3/5 382/3/5 381/3/5
f 384/3/5 378/3/5 382/3/5
f 384/3/5 382/3/5 383/3/5
f 388/1/5 386/1/5 385/1/5
f 389/1/5 386/1/5 388/1/5
f 391/3/5 388/3/5 387/3/5
f 391/3/5 390/3/5 389/3/5
f 391/3/5 389/3/5 388/3/5
f 392/3/5 390/3/5 391/3/5
f 393/3/5 390/3/5 392/3/5
f 394/3/5 390/3/5 393/3/5
f 395/2/5 392/2/5 391/2/5
f 396/2/5 392/2/5 395/2/5
f 397/2/5 394/2/5 393/2/5
f 398/2/5 394/2/5 397/2/5
f 403/1/5 400/1/5 399/1/5
f 404/1/5 400/1/5 403/1/5
f 405/1/5 402/1/5 401/1/5
f 406/1/5 402/1/5 405/1/5
f 411/2/5 408/2/5 407/2/5
f 412/2/5 410/2/5 409/2/5
f 413/2/5 411/2/5 407/2/5
f 413/2/5 412/2/5 411/2/5
f 414/2/5 410/2/5 412/2/5
f 414/2/5 412/2/5 413/2/5
f 415/3/6 416/3/6 417/3/6
f 417/3/6 416/3/6 418/3/6
f 415/3/6 417/3/6 419/3/6
f 419/3/6 417/3/6 420/3/6
f 418/3/6 416/3/6 421/3/6
f 421/3/6 416/3/6 422/3/6
f 423/3/6 424/3/6 427/3/6
f 427/3/6 424/3/6 428/3/6
f 425/3/6 426/3/6 429/3/6
f 429/3/6 426/3/6 430/3/6
f 431/2/6 432/2/6 435/2/6
f 433/2/6 434/2/6 436/2/6
f 431/2/6 435/2/6 437/2/6
f 435/2/6 436/2/6 437/2/6
f 436/2/6 434/2/6 438/2/6
f 437/2/6 436/2/6 438/2/6
f 439/1/6 440/1/6 442/1/6
f 442/1/6 440/1/6 443/1/6
f 441/1/6 442/1/6 446/1/6
f 443/1/6 444/1/6 446/1/6
f 442/1/6 443/1/6 446/1/6
f 446/1/6 444/1/6 447/1/6
f 445/1/6 446/1/6 449/1/6
f 447/1/6 448/1/6 449/1/6
f 446/1/6 447/1/6 449/1/6
f 449/1/6 448/1/6 450/1/6
f 445/1/6 449/1/6 451/1/6
f 450/1/6 448/1/6 452/1/6
f 445/1/6 451/1/6 453/1/6
f 452/1/6 448/1/6 458/1/6
f 453/1/6 454/1/6 459/1/6
f 455/1/6 456/1/6 462/1/6
f 462/1/6 456/1/6 463/1/6
f 457/1/6 458/1/6 466/1/6
f 459/1/6 460/1/6 467/1/6
f 463/1/6 464/1/6 468/1/6
f 461/1/6 462/1/6 468/1/6
f 462/1/6 463/1/6 468/1/6
f 468/1/6 464/1/6 469/1/6
f 465/1/6 466/1/6 470/1/6
f 468/1/6 469/1/6 471/1/6
f 469/1/6 470/1/6 471/1/6
f 445/1/6 453/1/6 471/1/6
f 459/1/6 467/1/6 471/1/6
f 467/1/6 468/1/6 471/1/6
f 453/1/6 459/1/6 471/1/6
f 471/1/6 470/1/6 472/1/6
f 470/1/6 466/1/6 473/1/6
f 472/1/6 470/1/6 473/1/6
f 466/1/6 458/1/6 473/1/6
f 458/1/6 448/1/6 474/1/6
f 473/1/6 458/1/6 474/1/6
f 472/1/6 473/1/6 475/1/6
f 475/1/6 473/1/6 476/1/6
f 479/1/6 480/1/6 486/1/6
f 481/1/6 482/1/6 487/1/6
f 477/1/6 478/1/6 489/1/6
f 489/1/6 478/1/6 490/1/6
f 485/1/6 486/1/6 492/1/6
f 486/1/6 480/1/6 492/1/6
f 492/1/6 480/1/6 493/1/6
f 487/1/6 488/1/6 494/1/6
f 481/1/6 487/1/6 494/1/6
f 494/1/6 488/1/6 495/1/6
f 483/1/6 484/1/6 497/1/6
f 497/1/6 484/1/6 498/1/6
f 490/1/6 491/1/6 499/1/6
f 485/1/6 492/1/6 500/1/6
f 495/1/6 488/1/6 501/1/6
f 496/1/6 497/1/6 502/1/6
f 499/1/6 500/1/6 503/1/6
f 490/1/6 499/1/6 503/1/6
f 500/1/6 492/1/6 504/1/6
f 503/1/6 500/1/6 504/1/6
f 501/1/6 502/1/6 505/1/6
f 495/1/6 501/1/6 505/1/6
f 502/1/6 497/1/6 506/1/6
f 505/1/6 502/1/6 506/1/6
f 509/1/6 510/1/6 515/1/6
f 515/1/6 510/1/6 516/1/6
f 511/1/6 512/1/6 517/1/6
f 517/1/6 512/1/6 518/1/6
f 507/1/6 508/1/6 519/1/6
f 519/1/6 508/1/6 520/1/6
f 513/1/6 514/1/6 525/1/6
f 525/1/6 514/1/6 526/1/6
f 521/1/6 522/1/6 527/1/6
f 527/1/6 522/1/6 528/1/6
f 523/1/6 524/1/6 529/1/6
f 529/1/6 524/1/6 530/1/6
f 531/1/6 532/1/6 535/1/6
f 535/1/6 532/1/6 536/1/6
f 533/1/6 534/1/6 537/1/6
f 537/1/6 534/1/6 538/1/6
f 539/4/6 540/4/6 541/4/6
f 541/4/6 540/4/6 542/4/6
f 543/5/6 544/5/6 545/5/6
f 545/5/6 544/5/6 546/5/6
f 547/3/6 548/3/6 551/3/6
f 551/3/6 548/3/6 552/3/6
f 549/3/6 550/3/6 553/3/6
f 553/3/6 550/3/6 554/3/6
f 555/3/6 556/3/6 557/3/6
f 557/3/6 556/3/6 558/3/6
f 559/3/6 560/3/6 563/3/6
f 563/3/6 560/3/6 564/3/6
f 561/3/6 562/3/6 565/3/6
f 565/3/6 562/3/6 566/3/6
