# MagicaVoxel @ Ephtracy

# material
mtllib wardrobe.mtl
usemtl palette

# normals
vn -1 0 0
vn 1 0 0
vn 0 0 1
vn 0 0 -1
vn 0 -1 0
vn 0 1 0

# texcoords
vt 0.251953 0.5
vt 0.306641 0.5
vt 0.923828 0.5
vt 0.947266 0.5

# verts
v -46 0 21
v -46 0 -21
v -46 126 21
v -46 126 -21
v -42 0 21
v -42 0 20
v -42 122 21
v -42 122 20
v -16 64 22
v -16 64 21
v -16 70 22
v -16 70 21
v -5 64 22
v -5 64 21
v -5 66 22
v -5 66 21
v -5 68 22
v -5 68 21
v -5 70 22
v -5 70 21
v 1 0 21
v 1 0 20
v 1 122 21
v 1 122 20
v 3 64 22
v 3 64 21
v 3 70 22
v 3 70 21
v 14 64 22
v 14 64 21
v 14 66 22
v 14 66 21
v 14 68 22
v 14 68 21
v 14 70 22
v 14 70 21
v 44 0 21
v 44 0 20
v 44 124 21
v 44 124 20
v -44 0 21
v -44 0 20
v -44 124 21
v -44 124 20
v -14 64 22
v -14 64 21
v -14 66 22
v -14 66 21
v -14 68 22
v -14 68 21
v -14 70 22
v -14 70 21
v -3 64 22
v -3 64 21
v -3 70 22
v -3 70 21
v -1 0 21
v -1 0 20
v -1 122 21
v -1 122 20
v 5 64 22
v 5 64 21
v 5 66 22
v 5 66 21
v 5 68 22
v 5 68 21
v 5 70 22
v 5 70 21
v 16 64 22
v 16 64 21
v 16 70 22
v 16 70 21
v 42 0 21
v 42 0 20
v 42 122 21
v 42 122 20
v 46 0 21
v 46 0 -21
v 46 126 21
v 46 126 -21
v -16 64 22
v -16 70 22
v -14 64 22
v -14 66 22
v -14 68 22
v -14 70 22
v -5 64 22
v -5 66 22
v -5 68 22
v -5 70 22
v -3 64 22
v -3 70 22
v 3 64 22
v 3 70 22
v 5 64 22
v 5 66 22
v 5 68 22
v 5 70 22
v 14 64 22
v 14 66 22
v 14 68 22
v 14 70 22
v 16 64 22
v 16 70 22
v -46 0 21
v -46 126 21
v -44 0 21
v -44 124 21
v -42 0 21
v -42 122 21
v -16 64 21
v -16 70 21
v -14 64 21
v -14 66 21
v -14 68 21
v -14 70 21
v -5 64 21
v -5 66 21
v -5 68 21
v -5 70 21
v -3 64 21
v -3 70 21
v -1 0 21
v -1 122 21
v 1 0 21
v 1 122 21
v 3 64 21
v 3 70 21
v 5 64 21
v 5 66 21
v 5 68 21
v 5 70 21
v 14 64 21
v 14 66 21
v 14 68 21
v 14 70 21
v 16 64 21
v 16 70 21
v 42 0 21
v 42 122 21
v 44 0 21
v 44 124 21
v 46 0 21
v 46 126 21
v -44 0 20
v -44 124 20
v -42 0 20
v -42 122 20
v -1 0 20
v -1 122 20
v 1 0 20
v 1 122 20
v 42 0 20
v 42 122 20
v 44 0 20
v 44 124 20
v -46 0 -21
v -46 126 -21
v 46 0 -21
v 46 126 -21
v -46 0 21
v -44 0 21
v -42 0 21
v -1 0 21
v 1 0 21
v 42 0 21
v 44 0 21
v 46 0 21
v -44 0 20
v -42 0 20
v -1 0 20
v 1 0 20
v 42 0 20
v 44 0 20
v -44 0 19
v -42 0 19
v -1 0 19
v 1 0 19
v 42 0 19
v 44 0 19
v -46 0 -21
v 46 0 -21
v -16 64 22
v -14 64 22
v -5 64 22
v -3 64 22
v 3 64 22
v 5 64 22
v 14 64 22
v 16 64 22
v -16 64 21
v -14 64 21
v -5 64 21
v -3 64 21
v 3 64 21
v 5 64 21
v 14 64 21
v 16 64 21
v -14 66 22
v -5 66 22
v 5 66 22
v 14 66 22
v -14 66 21
v -5 66 21
v 5 66 21
v 14 66 21
v -44 124 21
v 44 124 21
v -44 124 20
v 44 124 20
v -14 68 22
v -5 68 22
v 5 68 22
v 14 68 22
v -14 68 21
v -5 68 21
v 5 68 21
v 14 68 21
v -16 70 22
v -14 70 22
v -5 70 22
v -3 70 22
v 3 70 22
v 5 70 22
v 14 70 22
v 16 70 22
v -16 70 21
v -14 70 21
v -5 70 21
v -3 70 21
v 3 70 21
v 5 70 21
v 14 70 21
v 16 70 21
v -42 122 21
v -1 122 21
v 1 122 21
v 42 122 21
v -42 122 20
v -1 122 20
v 1 122 20
v 42 122 20
v -46 126 21
v 46 126 21
v -46 126 -21
v 46 126 -21

# faces
f 3/1/1 2/1/1 1/1/1
f 4/1/1 2/1/1 3/1/1
f 7/1/1 6/1/1 5/1/1
f 8/1/1 6/1/1 7/1/1
f 11/3/1 10/3/1 9/3/1
f 12/3/1 10/3/1 11/3/1
f 15/3/1 14/3/1 13/3/1
f 16/3/1 14/3/1 15/3/1
f 19/3/1 18/3/1 17/3/1
f 20/3/1 18/3/1 19/3/1
f 23/1/1 22/1/1 21/1/1
f 24/1/1 22/1/1 23/1/1
f 27/3/1 26/3/1 25/3/1
f 28/3/1 26/3/1 27/3/1
f 31/3/1 30/3/1 29/3/1
f 32/3/1 30/3/1 31/3/1
f 35/3/1 34/3/1 33/3/1
f 36/3/1 34/3/1 35/3/1
f 39/1/1 38/1/1 37/1/1
f 40/1/1 38/1/1 39/1/1
f 41/1/2 42/1/2 43/1/2
f 43/1/2 42/1/2 44/1/2
f 45/3/2 46/3/2 47/3/2
f 47/3/2 46/3/2 48/3/2
f 49/3/2 50/3/2 51/3/2
f 51/3/2 50/3/2 52/3/2
f 53/3/2 54/3/2 55/3/2
f 55/3/2 54/3/2 56/3/2
f 57/1/2 58/1/2 59/1/2
f 59/1/2 58/1/2 60/1/2
f 61/3/2 62/3/2 63/3/2
f 63/3/2 62/3/2 64/3/2
f 65/3/2 66/3/2 67/3/2
f 67/3/2 66/3/2 68/3/2
f 69/3/2 70/3/2 71/3/2
f 71/3/2 70/3/2 72/3/2
f 73/1/2 74/1/2 75/1/2
f 75/1/2 74/1/2 76/1/2
f 77/1/2 78/1/2 79/1/2
f 79/1/2 78/1/2 80/1/2
f 83/3/3 82/3/3 81/3/3
f 84/3/3 82/3/3 83/3/3
f 85/3/3 82/3/3 84/3/3
f 86/3/3 82/3/3 85/3/3
f 88/3/3 85/3/3 84/3/3
f 89/3/3 85/3/3 88/3/3
f 91/3/3 88/3/3 87/3/3
f 91/3/3 90/3/3 89/3/3
f 91/3/3 89/3/3 88/3/3
f 92/3/3 90/3/3 91/3/3
f 95/3/3 94/3/3 93/3/3
f 96/3/3 94/3/3 95/3/3
f 97/3/3 94/3/3 96/3/3
f 98/3/3 94/3/3 97/3/3
f 100/3/3 97/3/3 96/3/3
f 101/3/3 97/3/3 100/3/3
f 103/3/3 100/3/3 99/3/3
f 103/3/3 102/3/3 101/3/3
f 103/3/3 101/3/3 100/3/3
f 104/3/3 102/3/3 103/3/3
f 107/1/3 106/1/3 105/1/3
f 108/1/3 106/1/3 107/1/3
f 111/1/3 110/1/3 109/1/3
f 112/1/3 110/1/3 111/1/3
f 113/1/3 111/1/3 109/1/3
f 116/1/3 110/1/3 112/1/3
f 117/1/3 114/1/3 113/1/3
f 117/1/3 113/1/3 109/1/3
f 118/1/3 114/1/3 117/1/3
f 119/1/3 116/1/3 115/1/3
f 120/1/3 110/1/3 116/1/3
f 120/1/3 116/1/3 119/1/3
f 121/1/3 117/1/3 109/1/3
f 122/1/3 110/1/3 120/1/3
f 123/1/3 121/1/3 109/1/3
f 123/1/3 122/1/3 121/1/3
f 124/1/3 110/1/3 122/1/3
f 124/1/3 122/1/3 123/1/3
f 127/1/3 126/1/3 125/1/3
f 128/1/3 126/1/3 127/1/3
f 129/1/3 127/1/3 125/1/3
f 132/1/3 126/1/3 128/1/3
f 133/1/3 130/1/3 129/1/3
f 133/1/3 129/1/3 125/1/3
f 134/1/3 130/1/3 133/1/3
f 135/1/3 132/1/3 131/1/3
f 136/1/3 126/1/3 132/1/3
f 136/1/3 132/1/3 135/1/3
f 137/1/3 133/1/3 125/1/3
f 138/1/3 126/1/3 136/1/3
f 139/1/3 137/1/3 125/1/3
f 139/1/3 138/1/3 137/1/3
f 140/1/3 126/1/3 138/1/3
f 140/1/3 138/1/3 139/1/3
f 142/1/3 106/1/3 108/1/3
f 143/1/3 142/1/3 141/1/3
f 144/1/3 106/1/3 142/1/3
f 144/1/3 142/1/3 143/1/3
f 147/4/3 146/4/3 145/4/3
f 148/4/3 146/4/3 147/4/3
f 150/4/3 146/4/3 148/4/3
f 151/4/3 150/4/3 149/4/3
f 152/4/3 146/4/3 150/4/3
f 152/4/3 150/4/3 151/4/3
f 154/4/3 146/4/3 152/4/3
f 155/4/3 154/4/3 153/4/3
f 156/4/3 146/4/3 154/4/3
f 156/4/3 154/4/3 155/4/3
f 157/1/4 158/1/4 159/1/4
f 159/1/4 158/1/4 160/1/4
f 169/1/5 162/1/5 161/1/5
f 170/1/5 164/1/5 163/1/5
f 171/1/5 164/1/5 170/1/5
f 172/1/5 166/1/5 165/1/5
f 173/1/5 166/1/5 172/1/5
f 174/1/5 168/1/5 167/1/5
f 175/1/5 169/1/5 161/1/5
f 175/4/5 170/4/5 169/4/5
f 176/1/5 171/1/5 170/1/5
f 176/4/5 170/4/5 175/4/5
f 177/4/5 172/4/5 171/4/5
f 177/1/5 171/1/5 176/1/5
f 178/1/5 173/1/5 172/1/5
f 178/4/5 172/4/5 177/4/5
f 179/4/5 174/4/5 173/4/5
f 179/1/5 173/1/5 178/1/5
f 180/1/5 168/1/5 174/1/5
f 180/4/5 174/4/5 179/4/5
f 181/1/5 177/1/5 176/1/5
f 181/1/5 178/1/5 177/1/5
f 181/1/5 180/1/5 179/1/5
f 181/1/5 175/1/5 161/1/5
f 181/1/5 176/1/5 175/1/5
f 181/1/5 179/1/5 178/1/5
f 182/1/5 168/1/5 180/1/5
f 182/1/5 180/1/5 181/1/5
f 191/3/5 184/3/5 183/3/5
f 192/3/5 184/3/5 191/3/5
f 193/3/5 186/3/5 185/3/5
f 194/3/5 186/3/5 193/3/5
f 195/3/5 188/3/5 187/3/5
f 196/3/5 188/3/5 195/3/5
f 197/3/5 190/3/5 189/3/5
f 198/3/5 190/3/5 197/3/5
f 203/3/5 200/3/5 199/3/5
f 204/3/5 200/3/5 203/3/5
f 205/3/5 202/3/5 201/3/5
f 206/3/5 202/3/5 205/3/5
f 209/1/5 208/1/5 207/1/5
f 210/1/5 208/1/5 209/1/5
f 211/3/6 212/3/6 215/3/6
f 215/3/6 212/3/6 216/3/6
f 213/3/6 214/3/6 217/3/6
f 217/3/6 214/3/6 218/3/6
f 219/3/6 220/3/6 227/3/6
f 227/3/6 220/3/6 228/3/6
f 221/3/6 222/3/6 229/3/6
f 229/3/6 222/3/6 230/3/6
f 223/3/6 224/3/6 231/3/6
f 231/3/6 224/3/6 232/3/6
f 225/3/6 226/3/6 233/3/6
f 233/3/6 226/3/6 234/3/6
f 235/1/6 236/1/6 239/1/6
f 239/1/6 236/1/6 240/1/6
f 237/1/6 238/1/6 241/1/6
f 241/1/6 238/1/6 242/1/6
f 243/1/6 244/1/6 245/1/6
f 245/1/6 244/1/6 246/1/6
