# MagicaVoxel @ Ephtracy

# material
mtllib bed.mtl
usemtl palette

# normals
vn -1 0 0
vn 1 0 0
vn 0 0 1
vn 0 0 -1
vn 0 -1 0
vn 0 1 0

# texcoords
vt 0.00585938 0.5
vt 0.306641 0.5
vt 0.970703 0.5
vt 0.974609 0.5
vt 0.978516 0.5
vt 0.982422 0.5

# verts
v -46 0 63
v -46 0 -63
v -46 12 59
v -46 12 -59
v -46 30 63
v -46 30 59
v -46 44 -59
v -46 44 -63
v -45 13 59
v -45 13 -59
v -45 22 59
v -45 22 -59
v -44 12 59
v -44 12 -59
v -44 13 59
v -44 13 -59
v -41 22 57
v -41 22 -43
v -41 27 57
v -41 27 -32
v -41 27 -41
v -41 27 -42
v -41 28 -32
v -41 28 -41
v -41 28 -42
v -41 28 -43
v -39 12 61
v -39 12 60
v -39 12 -60
v -39 12 -61
v -39 13 63
v -39 13 62
v -39 13 61
v -39 13 60
v -39 13 -60
v -39 13 -61
v -39 21 62
v -39 22 63
v -39 22 62
v -39 22 -43
v -39 22 -56
v -39 23 -43
v -39 23 -56
v -36 22 -56
v -36 22 -57
v -36 22 -58
v -36 23 -43
v -36 23 -56
v -36 23 -57
v -36 23 -58
v -36 24 -43
v -36 24 -56
v -35 24 -43
v -35 24 -56
v -35 26 -43
v -35 26 -56
v -34 23 -56
v -34 23 -57
v -34 24 -56
v -34 24 -57
v 5 22 -43
v 5 22 -56
v 5 23 -43
v 5 23 -56
v 9 22 -56
v 9 22 -57
v 9 22 -58
v 9 23 -43
v 9 23 -55
v 9 23 -56
v 9 23 -57
v 9 23 -58
v 9 24 -43
v 9 24 -55
v 10 23 -55
v 10 23 -56
v 10 23 -57
v 10 24 -43
v 10 24 -55
v 10 24 -56
v 10 24 -57
v 10 26 -43
v 10 26 -56
v 40 12 63
v 40 12 62
v 40 12 60
v 40 12 -60
v 40 12 -62
v 40 13 62
v 40 13 60
v 40 13 -60
v 40 13 -62
v 40 21 62
v 40 22 62
v 40 22 59
v 40 22 -59
v 40 22 -62
v 40 30 63
v 40 30 59
v 40 42 -62
v 40 42 -63
v 40 44 -59
v 40 44 -63
v -40 12 63
v -40 12 62
v -40 12 60
v -40 12 -60
v -40 12 -62
v -40 13 62
v -40 13 60
v -40 13 -60
v -40 13 -62
v -40 21 62
v -40 22 62
v -40 22 59
v -40 22 -59
v -40 22 -62
v -40 30 63
v -40 30 59
v -40 42 -62
v -40 42 -63
v -40 44 -59
v -40 44 -63
v -10 23 -55
v -10 23 -56
v -10 23 -57
v -10 24 -43
v -10 24 -55
v -10 24 -56
v -10 24 -57
v -10 26 -43
v -10 26 -56
v -9 22 -56
v -9 22 -57
v -9 22 -58
v -9 23 -43
v -9 23 -55
v -9 23 -56
v -9 23 -57
v -9 23 -58
v -9 24 -43
v -9 24 -55
v -5 22 -43
v -5 22 -56
v -5 23 -43
v -5 23 -56
v 34 23 -56
v 34 23 -57
v 34 24 -56
v 34 24 -57
v 35 24 -43
v 35 24 -56
v 35 26 -43
v 35 26 -56
v 36 22 -56
v 36 22 -57
v 36 22 -58
v 36 23 -43
v 36 23 -56
v 36 23 -57
v 36 23 -58
v 36 24 -43
v 36 24 -56
v 39 12 61
v 39 12 60
v 39 12 -60
v 39 12 -61
v 39 13 63
v 39 13 62
v 39 13 61
v 39 13 60
v 39 13 -60
v 39 13 -61
v 39 21 62
v 39 22 63
v 39 22 62
v 39 22 -43
v 39 22 -56
v 39 23 -43
v 39 23 -56
v 41 22 57
v 41 22 -43
v 41 27 57
v 41 27 -32
v 41 27 -41
v 41 27 -42
v 41 28 -32
v 41 28 -41
v 41 28 -42
v 41 28 -43
v 44 12 59
v 44 12 -59
v 44 13 59
v 44 13 -59
v 45 13 59
v 45 13 -59
v 45 22 59
v 45 22 -59
v 46 0 63
v 46 0 -63
v 46 12 59
v 46 12 -59
v 46 30 63
v 46 30 59
v 46 44 -59
v 46 44 -63
v -46 0 63
v -46 30 63
v -40 12 63
v -40 30 63
v -39 13 63
v -39 22 63
v 39 13 63
v 39 22 63
v 40 12 63
v 40 30 63
v 46 0 63
v 46 30 63
v -40 13 62
v -40 21 62
v -40 22 62
v -39 13 62
v -39 21 62
v -39 22 62
v 39 13 62
v 39 21 62
v 39 22 62
v 40 13 62
v 40 21 62
v 40 22 62
v -39 12 61
v -39 13 61
v 39 12 61
v 39 13 61
v -40 12 60
v -40 13 60
v -39 12 60
v -39 13 60
v 39 12 60
v 39 13 60
v 40 12 60
v 40 13 60
v -41 22 57
v -41 27 57
v 41 22 57
v 41 27 57
v -41 27 -32
v -41 28 -32
v 41 27 -32
v 41 28 -32
v -46 12 -59
v -46 44 -59
v -45 12 -59
v -45 13 -59
v -45 22 -59
v -44 12 -59
v -44 13 -59
v -40 22 -59
v -40 44 -59
v 40 22 -59
v 40 44 -59
v 44 12 -59
v 44 13 -59
v 45 12 -59
v 45 13 -59
v 45 22 -59
v 46 12 -59
v 46 44 -59
v -40 12 -62
v -40 13 -62
v -40 22 -62
v -40 42 -62
v 40 12 -62
v 40 13 -62
v 40 22 -62
v 40 42 -62
v -46 12 59
v -46 30 59
v -45 12 59
v -45 13 59
v -45 22 59
v -44 12 59
v -44 13 59
v -40 22 59
v -40 30 59
v 40 22 59
v 40 30 59
v 44 12 59
v 44 13 59
v 45 12 59
v 45 13 59
v 45 22 59
v 46 12 59
v 46 30 59
v -41 22 -43
v -41 28 -43
v -39 22 -43
v -39 23 -43
v -36 23 -43
v -36 24 -43
v -35 24 -43
v -35 26 -43
v -10 24 -43
v -10 26 -43
v -9 23 -43
v -9 24 -43
v -5 22 -43
v -5 23 -43
v 5 22 -43
v 5 23 -43
v 9 23 -43
v 9 24 -43
v 10 24 -43
v 10 26 -43
v 35 24 -43
v 35 26 -43
v 36 23 -43
v 36 24 -43
v 39 22 -43
v 39 23 -43
v 41 22 -43
v 41 28 -43
v -10 23 -55
v -10 24 -55
v -9 23 -55
v -9 24 -55
v 9 23 -55
v 9 24 -55
v 10 23 -55
v 10 24 -55
v -39 22 -56
v -39 23 -56
v -36 22 -56
v -36 23 -56
v -36 24 -56
v -35 23 -56
v -35 24 -56
v -35 26 -56
v -34 23 -56
v -34 24 -56
v -34 25 -56
v -11 24 -56
v -11 25 -56
v -10 24 -56
v -10 26 -56
v -9 22 -56
v -9 23 -56
v -5 22 -56
v -5 23 -56
v 5 22 -56
v 5 23 -56
v 9 22 -56
v 9 23 -56
v 10 24 -56
v 10 26 -56
v 11 24 -56
v 11 25 -56
v 34 23 -56
v 34 24 -56
v 34 25 -56
v 35 23 -56
v 35 24 -56
v 35 26 -56
v 36 22 -56
v 36 23 -56
v 36 24 -56
v 39 22 -56
v 39 23 -56
v -34 23 -57
v -34 24 -57
v -10 23 -57
v -10 24 -57
v 10 23 -57
v 10 24 -57
v 34 23 -57
v 34 24 -57
v -36 22 -58
v -36 23 -58
v -9 22 -58
v -9 23 -58
v 9 22 -58
v 9 23 -58
v 36 22 -58
v 36 23 -58
v -40 12 -60
v -40 13 -60
v -39 12 -60
v -39 13 -60
v 39 12 -60
v 39 13 -60
v 40 12 -60
v 40 13 -60
v -39 12 -61
v -39 13 -61
v 39 12 -61
v 39 13 -61
v -46 0 -63
v -46 44 -63
v -40 42 -63
v -40 44 -63
v 40 42 -63
v 40 44 -63
v 46 0 -63
v 46 44 -63
v -46 0 63
v 46 0 63
v -45 0 62
v 45 0 62
v -45 0 -62
v 45 0 -62
v -46 0 -63
v 46 0 -63
v -39 13 63
v 39 13 63
v -40 13 62
v -39 13 62
v 39 13 62
v 40 13 62
v -39 13 61
v 39 13 61
v -40 13 60
v -39 13 60
v 39 13 60
v 40 13 60
v -45 13 59
v -44 13 59
v 44 13 59
v 45 13 59
v -45 13 -59
v -44 13 -59
v 44 13 -59
v 45 13 -59
v -40 13 -60
v -39 13 -60
v 39 13 -60
v 40 13 -60
v -39 13 -61
v 39 13 -61
v -40 13 -62
v 40 13 -62
v -40 12 63
v 40 12 63
v -40 12 62
v 40 12 62
v -39 12 61
v 39 12 61
v -40 12 60
v -39 12 60
v 39 12 60
v 40 12 60
v -46 12 59
v -45 12 59
v -44 12 59
v 44 12 59
v 45 12 59
v 46 12 59
v -46 12 -59
v -45 12 -59
v -44 12 -59
v 44 12 -59
v 45 12 -59
v 46 12 -59
v -40 12 -60
v -39 12 -60
v 39 12 -60
v 40 12 -60
v -39 12 -61
v 39 12 -61
v -40 12 -62
v 40 12 -62
v -39 22 63
v 39 22 63
v -40 22 62
v -39 22 62
v 39 22 62
v 40 22 62
v -45 22 59
v -40 22 59
v 40 22 59
v 45 22 59
v -41 22 57
v 41 22 57
v -41 22 -43
v -39 22 -43
v -5 22 -43
v 5 22 -43
v 39 22 -43
v 41 22 -43
v -39 22 -56
v -36 22 -56
v -9 22 -56
v -5 22 -56
v 5 22 -56
v 9 22 -56
v 36 22 -56
v 39 22 -56
v -36 22 -57
v -9 22 -57
v 9 22 -57
v 36 22 -57
v -36 22 -58
v -9 22 -58
v 9 22 -58
v 36 22 -58
v -45 22 -59
v -40 22 -59
v 40 22 -59
v 45 22 -59
v -40 22 -62
v 40 22 -62
v -39 23 -43
v -36 23 -43
v -9 23 -43
v -5 23 -43
v 5 23 -43
v 9 23 -43
v 36 23 -43
v 39 23 -43
v -10 23 -55
v -9 23 -55
v 9 23 -55
v 10 23 -55
v -39 23 -56
v -36 23 -56
v -35 23 -56
v -34 23 -56
v -10 23 -56
v -9 23 -56
v -5 23 -56
v 5 23 -56
v 9 23 -56
v 10 23 -56
v 34 23 -56
v 35 23 -56
v 36 23 -56
v 39 23 -56
v -36 23 -57
v -34 23 -57
v -10 23 -57
v -9 23 -57
v 9 23 -57
v 10 23 -57
v 34 23 -57
v 36 23 -57
v -36 23 -58
v -9 23 -58
v 9 23 -58
v 36 23 -58
v -36 24 -43
v -35 24 -43
v -10 24 -43
v -9 24 -43
v 9 24 -43
v 10 24 -43
v 35 24 -43
v 36 24 -43
v -10 24 -55
v -9 24 -55
v 9 24 -55
v 10 24 -55
v -36 24 -56
v -35 24 -56
v -34 24 -56
v -11 24 -56
v -10 24 -56
v 10 24 -56
v 11 24 -56
v 34 24 -56
v 35 24 -56
v 36 24 -56
v -34 24 -57
v -10 24 -57
v 10 24 -57
v 34 24 -57
v -35 26 -43
v -10 26 -43
v 10 26 -43
v 35 26 -43
v -35 26 -56
v -10 26 -56
v 10 26 -56
v 35 26 -56
v -41 27 57
v 41 27 57
v -41 27 -32
v 41 27 -32
v -41 28 -32
v 41 28 -32
v -40 28 -33
v 40 28 -33
v -40 28 -34
v -39 28 -34
v -38 28 -34
v -34 28 -34
v -33 28 -34
v -28 28 -34
v -27 28 -34
v -22 28 -34
v -21 28 -34
v -16 28 -34
v -15 28 -34
v -10 28 -34
v -9 28 -34
v -4 28 -34
v -3 28 -34
v 3 28 -34
v 4 28 -34
v 9 28 -34
v 10 28 -34
v 15 28 -34
v 16 28 -34
v 21 28 -34
v 22 28 -34
v 27 28 -34
v 28 28 -34
v 33 28 -34
v 34 28 -34
v 38 28 -34
v 39 28 -34
v 40 28 -34
v -41 28 -41
v -39 28 -41
v -38 28 -41
v -34 28 -41
v -33 28 -41
v -28 28 -41
v -27 28 -41
v -22 28 -41
v -21 28 -41
v -16 28 -41
v -15 28 -41
v -10 28 -41
v -9 28 -41
v -4 28 -41
v -3 28 -41
v 3 28 -41
v 4 28 -41
v 9 28 -41
v 10 28 -41
v 15 28 -41
v 16 28 -41
v 21 28 -41
v 22 28 -41
v 27 28 -41
v 28 28 -41
v 33 28 -41
v 34 28 -41
v 38 28 -41
v 39 28 -41
v 41 28 -41
v -41 28 -42
v 41 28 -42
v -41 28 -43
v 41 28 -43
v -46 30 63
v -40 30 63
v 40 30 63
v 46 30 63
v -46 30 59
v -40 30 59
v 40 30 59
v 46 30 59
v -40 42 -62
v 40 42 -62
v -40 42 -63
v 40 42 -63
v -46 44 -59
v -40 44 -59
v 40 44 -59
v 46 44 -59
v -46 44 -63
v -40 44 -63
v 40 44 -63
v 46 44 -63

# faces
f 3/3/1 2/3/1 1/3/1
f 4/3/1 2/3/1 3/3/1
f 5/3/1 3/3/1 1/3/1
f 6/3/1 3/3/1 5/3/1
f 7/3/1 2/3/1 4/3/1
f 8/3/1 2/3/1 7/3/1
f 11/5/1 10/5/1 9/5/1
f 12/5/1 10/5/1 11/5/1
f 15/4/1 14/4/1 13/4/1
f 16/4/1 14/4/1 15/4/1
f 19/4/1 18/4/1 17/4/1
f 20/4/1 18/4/1 19/4/1
f 21/4/1 18/4/1 20/4/1
f 22/4/1 18/4/1 21/4/1
f 23/4/1 21/4/1 20/4/1
f 24/3/1 22/3/1 21/3/1
f 24/4/1 21/4/1 23/4/1
f 25/4/1 18/4/1 22/4/1
f 25/3/1 22/3/1 24/3/1
f 26/4/1 18/4/1 25/4/1
f 33/4/1 28/4/1 27/4/1
f 34/4/1 28/4/1 33/4/1
f 35/4/1 30/4/1 29/4/1
f 36/4/1 30/4/1 35/4/1
f 37/3/1 32/3/1 31/3/1
f 38/3/1 37/3/1 31/3/1
f 39/3/1 37/3/1 38/3/1
f 42/5/1 41/5/1 40/5/1
f 43/5/1 41/5/1 42/5/1
f 48/4/1 45/4/1 44/4/1
f 49/5/1 46/5/1 45/5/1
f 49/4/1 45/4/1 48/4/1
f 50/5/1 46/5/1 49/5/1
f 51/5/1 48/5/1 47/5/1
f 52/5/1 48/5/1 51/5/1
f 55/5/1 54/5/1 53/5/1
f 56/5/1 54/5/1 55/5/1
f 59/4/1 58/4/1 57/4/1
f 60/4/1 58/4/1 59/4/1
f 63/5/1 62/5/1 61/5/1
f 64/5/1 62/5/1 63/5/1
f 70/4/1 66/4/1 65/4/1
f 71/5/1 67/5/1 66/5/1
f 71/4/1 66/4/1 70/4/1
f 72/5/1 67/5/1 71/5/1
f 73/5/1 69/5/1 68/5/1
f 74/5/1 69/5/1 73/5/1
f 79/5/1 76/5/1 75/5/1
f 80/4/1 77/4/1 76/4/1
f 80/5/1 76/5/1 79/5/1
f 81/4/1 77/4/1 80/4/1
f 82/5/1 79/5/1 78/5/1
f 82/5/1 80/5/1 79/5/1
f 83/5/1 80/5/1 82/5/1
f 89/3/1 85/3/1 84/3/1
f 89/4/1 86/4/1 85/4/1
f 90/4/1 86/4/1 89/4/1
f 91/4/1 88/4/1 87/4/1
f 92/4/1 88/4/1 91/4/1
f 93/3/1 89/3/1 84/3/1
f 94/3/1 93/3/1 84/3/1
f 98/3/1 94/3/1 84/3/1
f 98/3/1 95/3/1 94/3/1
f 99/3/1 95/3/1 98/3/1
f 100/3/1 97/3/1 96/3/1
f 102/3/1 100/3/1 96/3/1
f 102/3/1 101/3/1 100/3/1
f 103/3/1 101/3/1 102/3/1
f 104/3/2 105/3/2 109/3/2
f 105/4/2 106/4/2 109/4/2
f 109/4/2 106/4/2 110/4/2
f 107/4/2 108/4/2 111/4/2
f 111/4/2 108/4/2 112/4/2
f 104/3/2 109/3/2 113/3/2
f 104/3/2 113/3/2 114/3/2
f 104/3/2 114/3/2 118/3/2
f 114/3/2 115/3/2 118/3/2
f 118/3/2 115/3/2 119/3/2
f 116/3/2 117/3/2 120/3/2
f 116/3/2 120/3/2 122/3/2
f 120/3/2 121/3/2 122/3/2
f 122/3/2 121/3/2 123/3/2
f 124/5/2 125/5/2 128/5/2
f 125/4/2 126/4/2 129/4/2
f 128/5/2 125/5/2 129/5/2
f 129/4/2 126/4/2 130/4/2
f 127/5/2 128/5/2 131/5/2
f 128/5/2 129/5/2 131/5/2
f 131/5/2 129/5/2 132/5/2
f 133/4/2 134/4/2 138/4/2
f 134/5/2 135/5/2 139/5/2
f 138/4/2 134/4/2 139/4/2
f 139/5/2 135/5/2 140/5/2
f 136/5/2 137/5/2 141/5/2
f 141/5/2 137/5/2 142/5/2
f 143/5/2 144/5/2 145/5/2
f 145/5/2 144/5/2 146/5/2
f 147/4/2 148/4/2 149/4/2
f 149/4/2 148/4/2 150/4/2
f 151/5/2 152/5/2 153/5/2
f 153/5/2 152/5/2 154/5/2
f 155/4/2 156/4/2 159/4/2
f 156/5/2 157/5/2 160/5/2
f 159/4/2 156/4/2 160/4/2
f 160/5/2 157/5/2 161/5/2
f 158/5/2 159/5/2 162/5/2
f 162/5/2 159/5/2 163/5/2
f 164/4/2 165/4/2 170/4/2
f 170/4/2 165/4/2 171/4/2
f 166/4/2 167/4/2 172/4/2
f 172/4/2 167/4/2 173/4/2
f 168/3/2 169/3/2 174/3/2
f 168/3/2 174/3/2 175/3/2
f 175/3/2 174/3/2 176/3/2
f 177/5/2 178/5/2 179/5/2
f 179/5/2 178/5/2 180/5/2
f 181/4/2 182/4/2 183/4/2
f 183/4/2 182/4/2 184/4/2
f 184/4/2 182/4/2 185/4/2
f 185/4/2 182/4/2 186/4/2
f 184/4/2 185/4/2 187/4/2
f 185/3/2 186/3/2 188/3/2
f 187/4/2 185/4/2 188/4/2
f 186/4/2 182/4/2 189/4/2
f 188/3/2 186/3/2 189/3/2
f 189/4/2 182/4/2 190/4/2
f 191/4/2 192/4/2 193/4/2
f 193/4/2 192/4/2 194/4/2
f 195/5/2 196/5/2 197/5/2
f 197/5/2 196/5/2 198/5/2
f 199/3/2 200/3/2 201/3/2
f 201/3/2 200/3/2 202/3/2
f 199/3/2 201/3/2 203/3/2
f 203/3/2 201/3/2 204/3/2
f 202/3/2 200/3/2 205/3/2
f 205/3/2 200/3/2 206/3/2
f 209/3/3 208/3/3 207/3/3
f 210/3/3 208/3/3 209/3/3
f 213/3/3 212/3/3 211/3/3
f 214/3/3 212/3/3 213/3/3
f 215/3/3 209/3/3 207/3/3
f 217/3/3 215/3/3 207/3/3
f 217/3/3 216/3/3 215/3/3
f 218/3/3 216/3/3 217/3/3
f 222/4/3 220/4/3 219/4/3
f 223/5/3 221/5/3 220/5/3
f 223/4/3 220/4/3 222/4/3
f 224/5/3 221/5/3 223/5/3
f 228/4/3 226/4/3 225/4/3
f 229/5/3 227/5/3 226/5/3
f 229/4/3 226/4/3 228/4/3
f 230/5/3 227/5/3 229/5/3
f 233/4/3 232/4/3 231/4/3
f 234/4/3 232/4/3 233/4/3
f 237/4/3 236/4/3 235/4/3
f 238/4/3 236/4/3 237/4/3
f 241/4/3 240/4/3 239/4/3
f 242/4/3 240/4/3 241/4/3
f 245/4/3 244/4/3 243/4/3
f 246/4/3 244/4/3 245/4/3
f 249/4/3 248/4/3 247/4/3
f 250/4/3 248/4/3 249/4/3
f 253/3/3 252/3/3 251/3/3
f 254/3/3 252/3/3 253/3/3
f 255/3/3 252/3/3 254/3/3
f 256/4/3 254/4/3 253/4/3
f 257/4/3 254/4/3 256/4/3
f 258/3/3 252/3/3 255/3/3
f 259/3/3 252/3/3 258/3/3
f 264/4/3 263/4/3 262/4/3
f 265/4/3 263/4/3 264/4/3
f 266/3/3 261/3/3 260/3/3
f 267/3/3 265/3/3 264/3/3
f 267/3/3 266/3/3 265/3/3
f 268/3/3 261/3/3 266/3/3
f 268/3/3 266/3/3 267/3/3
f 273/3/3 270/3/3 269/3/3
f 274/3/3 270/3/3 273/3/3
f 275/3/3 272/3/3 271/3/3
f 276/3/3 272/3/3 275/3/3
f 277/3/4 278/3/4 279/3/4
f 279/3/4 278/3/4 280/3/4
f 280/3/4 278/3/4 281/3/4
f 279/4/4 280/4/4 282/4/4
f 282/4/4 280/4/4 283/4/4
f 281/3/4 278/3/4 284/3/4
f 284/3/4 278/3/4 285/3/4
f 288/4/4 289/4/4 290/4/4
f 290/4/4 289/4/4 291/4/4
f 286/3/4 287/3/4 292/3/4
f 290/3/4 291/3/4 293/3/4
f 291/3/4 292/3/4 293/3/4
f 292/3/4 287/3/4 294/3/4
f 293/3/4 292/3/4 294/3/4
f 295/4/4 296/4/4 297/4/4
f 297/4/4 296/4/4 298/4/4
f 298/4/4 296/4/4 299/4/4
f 299/4/4 296/4/4 300/4/4
f 300/4/4 296/4/4 301/4/4
f 301/4/4 296/4/4 302/4/4
f 302/4/4 296/4/4 304/4/4
f 303/4/4 304/4/4 306/4/4
f 305/4/4 306/4/4 308/4/4
f 307/4/4 308/4/4 309/4/4
f 308/4/4 306/4/4 310/4/4
f 309/4/4 308/4/4 310/4/4
f 310/4/4 306/4/4 311/4/4
f 306/4/4 304/4/4 312/4/4
f 311/4/4 306/4/4 312/4/4
f 312/4/4 304/4/4 313/4/4
f 304/4/4 296/4/4 314/4/4
f 313/4/4 304/4/4 314/4/4
f 314/4/4 296/4/4 316/4/4
f 315/4/4 316/4/4 318/4/4
f 317/4/4 318/4/4 320/4/4
f 319/4/4 320/4/4 321/4/4
f 316/4/4 296/4/4 322/4/4
f 321/4/4 320/4/4 322/4/4
f 318/4/4 316/4/4 322/4/4
f 320/4/4 318/4/4 322/4/4
f 323/5/4 324/5/4 325/5/4
f 325/5/4 324/5/4 326/5/4
f 327/5/4 328/5/4 329/5/4
f 329/5/4 328/5/4 330/5/4
f 331/5/4 332/5/4 333/5/4
f 333/5/4 332/5/4 334/5/4
f 334/5/4 335/5/4 336/5/4
f 336/5/4 335/5/4 337/5/4
f 336/4/4 337/4/4 339/4/4
f 337/5/4 338/5/4 340/5/4
f 339/4/4 337/4/4 340/4/4
f 340/5/4 338/5/4 341/5/4
f 340/4/4 341/4/4 342/4/4
f 341/5/4 338/5/4 343/5/4
f 342/4/4 341/4/4 343/4/4
f 342/5/4 343/5/4 344/5/4
f 343/5/4 338/5/4 345/5/4
f 344/5/4 343/5/4 345/5/4
f 346/5/4 347/5/4 348/5/4
f 348/5/4 347/5/4 349/5/4
f 350/5/4 351/5/4 352/5/4
f 352/5/4 351/5/4 353/5/4
f 354/5/4 355/5/4 356/5/4
f 356/5/4 355/5/4 357/5/4
f 356/4/4 357/4/4 359/4/4
f 357/5/4 355/5/4 360/5/4
f 359/4/4 357/4/4 360/4/4
f 358/4/4 359/4/4 361/4/4
f 359/5/4 360/5/4 362/5/4
f 361/4/4 359/4/4 362/4/4
f 360/5/4 355/5/4 363/5/4
f 362/5/4 360/5/4 363/5/4
f 361/5/4 362/5/4 365/5/4
f 365/5/4 362/5/4 366/5/4
f 364/5/4 365/5/4 367/5/4
f 367/5/4 365/5/4 368/5/4
f 369/4/4 370/4/4 371/4/4
f 371/4/4 370/4/4 372/4/4
f 373/4/4 374/4/4 375/4/4
f 375/4/4 374/4/4 376/4/4
f 377/5/4 378/5/4 379/5/4
f 379/5/4 378/5/4 380/5/4
f 381/5/4 382/5/4 383/5/4
f 383/5/4 382/5/4 384/5/4
f 385/4/4 386/4/4 387/4/4
f 387/4/4 386/4/4 388/4/4
f 389/4/4 390/4/4 391/4/4
f 391/4/4 390/4/4 392/4/4
f 393/4/4 394/4/4 395/4/4
f 395/4/4 394/4/4 396/4/4
f 397/3/4 398/3/4 399/3/4
f 399/3/4 398/3/4 400/3/4
f 397/3/4 399/3/4 401/3/4
f 397/3/4 401/3/4 403/3/4
f 401/3/4 402/3/4 403/3/4
f 403/3/4 402/3/4 404/3/4
f 407/3/5 406/3/5 405/3/5
f 408/3/5 406/3/5 407/3/5
f 409/3/5 407/3/5 405/3/5
f 409/4/5 408/4/5 407/4/5
f 410/3/5 406/3/5 408/3/5
f 410/4/5 408/4/5 409/4/5
f 411/3/5 409/3/5 405/3/5
f 411/3/5 410/3/5 409/3/5
f 412/3/5 406/3/5 410/3/5
f 412/3/5 410/3/5 411/3/5
f 416/3/5 414/3/5 413/3/5
f 417/3/5 414/3/5 416/3/5
f 419/4/5 416/4/5 415/4/5
f 419/4/5 418/4/5 417/4/5
f 419/4/5 417/4/5 416/4/5
f 420/4/5 418/4/5 419/4/5
f 421/4/5 419/4/5 415/4/5
f 422/4/5 419/4/5 421/4/5
f 423/4/5 418/4/5 420/4/5
f 424/4/5 418/4/5 423/4/5
f 429/5/5 426/5/5 425/5/5
f 430/5/5 426/5/5 429/5/5
f 431/5/5 428/5/5 427/5/5
f 432/5/5 428/5/5 431/5/5
f 437/4/5 434/4/5 433/4/5
f 438/4/5 436/4/5 435/4/5
f 439/4/5 437/4/5 433/4/5
f 439/4/5 438/4/5 437/4/5
f 440/4/5 436/4/5 438/4/5
f 440/4/5 438/4/5 439/4/5
f 441/3/6 442/3/6 443/3/6
f 443/3/6 442/3/6 444/3/6
f 443/4/6 444/4/6 445/4/6
f 445/4/6 444/4/6 446/4/6
f 443/4/6 445/4/6 447/4/6
f 447/4/6 445/4/6 448/4/6
f 446/4/6 444/4/6 449/4/6
f 449/4/6 444/4/6 450/4/6
f 451/3/6 452/3/6 457/3/6
f 452/4/6 453/4/6 458/4/6
f 457/3/6 452/3/6 458/3/6
f 458/4/6 453/4/6 459/4/6
f 454/4/6 455/4/6 460/4/6
f 455/3/6 456/3/6 461/3/6
f 460/4/6 455/4/6 461/4/6
f 461/3/6 456/3/6 462/3/6
f 463/4/6 464/4/6 467/4/6
f 465/4/6 466/4/6 468/4/6
f 463/4/6 467/4/6 469/4/6
f 467/4/6 468/4/6 469/4/6
f 468/4/6 466/4/6 470/4/6
f 469/4/6 468/4/6 470/4/6
f 471/3/6 472/3/6 474/3/6
f 474/3/6 472/3/6 475/3/6
f 473/5/6 474/5/6 478/5/6
f 475/5/6 476/5/6 478/5/6
f 474/5/6 475/5/6 478/5/6
f 478/5/6 476/5/6 479/5/6
f 477/5/6 478/5/6 481/5/6
f 479/5/6 480/5/6 481/5/6
f 478/5/6 479/5/6 481/5/6
f 481/5/6 480/5/6 482/5/6
f 477/5/6 481/5/6 483/5/6
f 482/5/6 480/5/6 488/5/6
f 483/5/6 484/5/6 489/5/6
f 485/5/6 486/5/6 492/5/6
f 492/5/6 486/5/6 493/5/6
f 487/5/6 488/5/6 496/5/6
f 489/5/6 490/5/6 497/5/6
f 493/5/6 494/5/6 498/5/6
f 491/5/6 492/5/6 498/5/6
f 492/5/6 493/5/6 498/5/6
f 498/5/6 494/5/6 499/5/6
f 495/5/6 496/5/6 500/5/6
f 489/5/6 497/5/6 501/5/6
f 498/5/6 499/5/6 502/5/6
f 502/5/6 499/5/6 503/5/6
f 500/5/6 496/5/6 504/5/6
f 489/5/6 501/5/6 505/5/6
f 503/5/6 504/5/6 505/5/6
f 477/5/6 483/5/6 505/5/6
f 502/5/6 503/5/6 505/5/6
f 501/5/6 502/5/6 505/5/6
f 483/5/6 489/5/6 505/5/6
f 505/5/6 504/5/6 506/5/6
f 504/5/6 496/5/6 507/5/6
f 506/5/6 504/5/6 507/5/6
f 496/5/6 488/5/6 507/5/6
f 488/5/6 480/5/6 508/5/6
f 507/5/6 488/5/6 508/5/6
f 506/5/6 507/5/6 509/5/6
f 509/5/6 507/5/6 510/5/6
f 513/5/6 514/5/6 520/5/6
f 515/5/6 516/5/6 521/5/6
f 511/5/6 512/5/6 523/5/6
f 523/5/6 512/5/6 524/5/6
f 519/5/6 520/5/6 527/5/6
f 520/5/6 514/5/6 528/5/6
f 527/5/6 520/5/6 528/5/6
f 528/5/6 514/5/6 529/5/6
f 521/5/6 522/5/6 530/5/6
f 515/5/6 521/5/6 530/5/6
f 530/5/6 522/5/6 531/5/6
f 531/5/6 522/5/6 532/5/6
f 517/5/6 518/5/6 535/5/6
f 535/5/6 518/5/6 536/5/6
f 525/4/6 526/4/6 537/4/6
f 524/4/6 525/4/6 537/4/6
f 537/4/6 526/4/6 538/4/6
f 527/4/6 528/4/6 539/4/6
f 539/4/6 528/4/6 540/4/6
f 531/4/6 532/4/6 541/4/6
f 541/4/6 532/4/6 542/4/6
f 533/4/6 534/4/6 543/4/6
f 534/4/6 535/4/6 543/4/6
f 543/4/6 535/4/6 544/4/6
f 537/5/6 538/5/6 545/5/6
f 539/5/6 540/5/6 545/5/6
f 538/5/6 539/5/6 545/5/6
f 545/5/6 540/5/6 546/5/6
f 541/5/6 542/5/6 547/5/6
f 543/5/6 544/5/6 547/5/6
f 542/5/6 543/5/6 547/5/6
f 547/5/6 544/5/6 548/5/6
f 551/5/6 552/5/6 557/5/6
f 557/5/6 552/5/6 558/5/6
f 553/5/6 554/5/6 559/5/6
f 559/5/6 554/5/6 560/5/6
f 549/5/6 550/5/6 561/5/6
f 561/5/6 550/5/6 562/5/6
f 555/5/6 556/5/6 569/5/6
f 569/5/6 556/5/6 570/5/6
f 564/4/6 565/4/6 571/4/6
f 563/4/6 564/4/6 571/4/6
f 571/4/6 565/4/6 572/4/6
f 567/4/6 568/4/6 573/4/6
f 566/4/6 567/4/6 573/4/6
f 573/4/6 568/4/6 574/4/6
f 575/5/6 576/5/6 579/5/6
f 579/5/6 576/5/6 580/5/6
f 577/5/6 578/5/6 581/5/6
f 581/5/6 578/5/6 582/5/6
f 583/4/6 584/4/6 585/4/6
f 585/4/6 584/4/6 586/4/6
f 587/4/6 588/4/6 589/4/6
f 589/4/6 588/4/6 590/4/6
f 587/4/6 589/4/6 591/4/6
f 589/3/6 590/3/6 591/3/6
f 591/3/6 590/3/6 592/3/6
f 592/3/6 590/3/6 593/3/6
f 593/3/6 590/3/6 594/3/6
f 594/3/6 590/3/6 595/3/6
f 595/3/6 590/3/6 596/3/6
f 596/3/6 590/3/6 597/3/6
f 597/3/6 590/3/6 598/3/6
f 598/3/6 590/3/6 599/3/6
f 599/3/6 590/3/6 600/3/6
f 600/3/6 590/3/6 601/3/6
f 601/3/6 590/3/6 602/3/6
f 602/3/6 590/3/6 603/3/6
f 603/3/6 590/3/6 604/3/6
f 604/3/6 590/3/6 605/3/6
f 605/3/6 590/3/6 606/3/6
f 606/3/6 590/3/6 607/3/6
f 607/3/6 590/3/6 608/3/6
f 608/3/6 590/3/6 609/3/6
f 609/3/6 590/3/6 610/3/6
f 610/3/6 590/3/6 611/3/6
f 611/3/6 590/3/6 612/3/6
f 612/3/6 590/3/6 613/3/6
f 613/3/6 590/3/6 614/3/6
f 614/3/6 590/3/6 615/3/6
f 615/3/6 590/3/6 616/3/6
f 616/3/6 590/3/6 617/3/6
f 617/3/6 590/3/6 618/3/6
f 618/3/6 590/3/6 619/3/6
f 590/4/6 588/4/6 620/4/6
f 619/3/6 590/3/6 620/3/6
f 587/4/6 591/4/6 621/4/6
f 591/4/6 592/4/6 621/4/6
f 592/3/6 593/3/6 622/3/6
f 621/4/6 592/4/6 622/4/6
f 593/4/6 594/4/6 623/4/6
f 622/3/6 593/3/6 623/3/6
f 594/3/6 595/3/6 624/3/6
f 623/4/6 594/4/6 624/4/6
f 595/4/6 596/4/6 625/4/6
f 624/3/6 595/3/6 625/3/6
f 596/3/6 597/3/6 626/3/6
f 625/4/6 596/4/6 626/4/6
f 597/4/6 598/4/6 627/4/6
f 626/3/6 597/3/6 627/3/6
f 598/3/6 599/3/6 628/3/6
f 627/4/6 598/4/6 628/4/6
f 599/4/6 600/4/6 629/4/6
f 628/3/6 599/3/6 629/3/6
f 600/3/6 601/3/6 630/3/6
f 629/4/6 600/4/6 630/4/6
f 601/4/6 602/4/6 631/4/6
f 630/3/6 601/3/6 631/3/6
f 602/3/6 603/3/6 632/3/6
f 631/4/6 602/4/6 632/4/6
f 603/4/6 604/4/6 633/4/6
f 632/3/6 603/3/6 633/3/6
f 604/3/6 605/3/6 634/3/6
f 633/4/6 604/4/6 634/4/6
f 605/4/6 606/4/6 635/4/6
f 634/3/6 605/3/6 635/3/6
f 606/3/6 607/3/6 636/3/6
f 635/4/6 606/4/6 636/4/6
f 607/4/6 608/4/6 637/4/6
f 636/3/6 607/3/6 637/3/6
f 608/3/6 609/3/6 638/3/6
f 637/4/6 608/4/6 638/4/6
f 609/4/6 610/4/6 639/4/6
f 638/3/6 609/3/6 639/3/6
f 610/3/6 611/3/6 640/3/6
f 639/4/6 610/4/6 640/4/6
f 611/4/6 612/4/6 641/4/6
f 640/3/6 611/3/6 641/3/6
f 612/3/6 613/3/6 642/3/6
f 641/4/6 612/4/6 642/4/6
f 613/4/6 614/4/6 643/4/6
f 642/3/6 613/3/6 643/3/6
f 614/3/6 615/3/6 644/3/6
f 643/4/6 614/4/6 644/4/6
f 615/4/6 616/4/6 645/4/6
f 644/3/6 615/3/6 645/3/6
f 616/3/6 617/3/6 646/3/6
f 645/4/6 616/4/6 646/4/6
f 617/4/6 618/4/6 647/4/6
f 646/3/6 617/3/6 647/3/6
f 618/3/6 619/3/6 648/3/6
f 647/4/6 618/4/6 648/4/6
f 619/4/6 620/4/6 649/4/6
f 648/3/6 619/3/6 649/3/6
f 620/4/6 588/4/6 650/4/6
f 649/4/6 620/4/6 650/4/6
f 646/3/6 647/3/6 651/3/6
f 648/3/6 649/3/6 651/3/6
f 649/3/6 650/3/6 651/3/6
f 645/3/6 646/3/6 651/3/6
f 644/3/6 645/3/6 651/3/6
f 643/3/6 644/3/6 651/3/6
f 642/3/6 643/3/6 651/3/6
f 641/3/6 642/3/6 651/3/6
f 640/3/6 641/3/6 651/3/6
f 639/3/6 640/3/6 651/3/6
f 638/3/6 639/3/6 651/3/6
f 637/3/6 638/3/6 651/3/6
f 636/3/6 637/3/6 651/3/6
f 635/3/6 636/3/6 651/3/6
f 634/3/6 635/3/6 651/3/6
f 633/3/6 634/3/6 651/3/6
f 632/3/6 633/3/6 651/3/6
f 631/3/6 632/3/6 651/3/6
f 630/3/6 631/3/6 651/3/6
f 629/3/6 630/3/6 651/3/6
f 628/3/6 629/3/6 651/3/6
f 627/3/6 628/3/6 651/3/6
f 626/3/6 627/3/6 651/3/6
f 625/3/6 626/3/6 651/3/6
f 624/3/6 625/3/6 651/3/6
f 623/3/6 624/3/6 651/3/6
f 622/3/6 623/3/6 651/3/6
f 621/3/6 622/3/6 651/3/6
f 647/3/6 648/3/6 651/3/6
f 651/3/6 650/3/6 652/3/6
f 651/4/6 652/4/6 653/4/6
f 653/4/6 652/4/6 654/4/6
f 655/3/6 656/3/6 659/3/6
f 659/3/6 656/3/6 660/3/6
f 657/3/6 658/3/6 661/3/6
f 661/3/6 658/3/6 662/3/6
f 663/3/6 664/3/6 665/3/6
f 665/3/6 664/3/6 666/3/6
f 667/3/6 668/3/6 671/3/6
f 671/3/6 668/3/6 672/3/6
f 669/3/6 670/3/6 673/3/6
f 673/3/6 670/3/6 674/3/6
