# MagicaVoxel @ Ephtracy

# material
mtllib couch.mtl
usemtl palette

# normals
vn -1 0 0
vn 1 0 0
vn 0 0 1
vn 0 0 -1
vn 0 -1 0
vn 0 1 0

# texcoords
vt 0.162109 0.5
vt 0.181641 0.5
vt 0.306641 0.5
vt 0.970703 0.5
vt 0.974609 0.5

# verts
v -46 0 23
v -46 0 -23
v -46 21 23
v -46 21 -23
v -46 22 23
v -46 22 -23
v -46 26 23
v -46 26 -23
v -45 21 22
v -45 21 -22
v -45 21 -23
v -45 22 22
v -45 22 -22
v -45 22 -23
v -39 0 23
v -39 0 22
v -39 22 23
v -39 22 22
v -38 26 -1
v -38 26 -23
v -38 43 -1
v -38 43 -23
v -37 13 23
v -37 13 22
v -37 13 21
v -37 13 -1
v -37 19 23
v -37 19 -1
v 1 13 23
v 1 13 22
v 1 13 -1
v 1 17 -1
v 1 17 -2
v 1 19 23
v 1 19 -1
v 1 42 -2
v 1 42 -23
v 1 43 -1
v 1 43 -23
v 38 12 23
v 38 12 22
v 38 13 22
v 38 13 21
v 38 13 20
v 38 13 -1
v 38 15 20
v 38 15 -1
v 38 26 23
v 38 26 -1
v 40 0 23
v 40 0 22
v 40 21 23
v 40 21 22
v -40 0 23
v -40 0 22
v -40 21 23
v -40 21 22
v -38 12 23
v -38 12 22
v -38 13 22
v -38 13 21
v -38 13 20
v -38 13 -1
v -38 15 20
v -38 15 -1
v -38 26 23
v -38 26 -1
v -1 13 23
v -1 13 22
v -1 13 -1
v -1 17 -1
v -1 17 -2
v -1 19 23
v -1 19 -1
v -1 42 -2
v -1 42 -23
v -1 43 -1
v -1 43 -23
v 37 13 23
v 37 13 22
v 37 13 21
v 37 13 -1
v 37 19 23
v 37 19 -1
v 38 26 -1
v 38 26 -23
v 38 43 -1
v 38 43 -23
v 39 0 23
v 39 0 22
v 39 22 23
v 39 22 22
v 45 21 22
v 45 21 -22
v 45 21 -23
v 45 22 22
v 45 22 -22
v 45 22 -23
v 46 0 23
v 46 0 -23
v 46 21 23
v 46 21 -23
v 46 22 23
v 46 22 -23
v 46 26 23
v 46 26 -23
v -46 0 23
v -46 21 23
v -46 22 23
v -46 26 23
v -40 0 23
v -40 21 23
v -39 0 23
v -39 22 23
v -38 12 23
v -38 26 23
v -37 13 23
v -37 19 23
v -1 13 23
v -1 19 23
v 1 13 23
v 1 19 23
v 37 13 23
v 37 19 23
v 38 12 23
v 38 26 23
v 39 0 23
v 39 22 23
v 40 0 23
v 40 21 23
v 46 0 23
v 46 21 23
v 46 22 23
v 46 26 23
v -45 21 22
v -45 22 22
v -40 0 22
v -40 21 22
v -39 0 22
v -39 22 22
v -38 12 22
v -38 13 22
v -37 13 22
v -1 13 22
v 1 13 22
v 37 13 22
v 38 12 22
v 38 13 22
v 39 0 22
v 39 22 22
v 40 0 22
v 40 21 22
v 45 21 22
v 45 22 22
v -38 13 -1
v -38 15 -1
v -38 26 -1
v -38 43 -1
v -37 13 -1
v -37 19 -1
v -29 19 -1
v -29 43 -1
v -28 19 -1
v -28 43 -1
v -19 19 -1
v -19 43 -1
v -18 19 -1
v -18 43 -1
v -11 19 -1
v -11 43 -1
v -10 19 -1
v -10 43 -1
v -1 13 -1
v -1 17 -1
v -1 19 -1
v -1 43 -1
v 1 13 -1
v 1 17 -1
v 1 19 -1
v 1 43 -1
v 10 19 -1
v 10 43 -1
v 11 19 -1
v 11 43 -1
v 18 19 -1
v 18 43 -1
v 19 19 -1
v 19 43 -1
v 28 19 -1
v 28 43 -1
v 29 19 -1
v 29 43 -1
v 37 13 -1
v 37 19 -1
v 38 13 -1
v 38 15 -1
v 38 26 -1
v 38 43 -1
v -1 17 -2
v -1 42 -2
v 1 17 -2
v 1 42 -2
v -46 0 -23
v -46 21 -23
v -46 22 -23
v -46 26 -23
v -45 21 -23
v -45 22 -23
v -38 26 -23
v -38 43 -23
v -29 42 -23
v -29 43 -23
v -28 42 -23
v -28 43 -23
v -19 42 -23
v -19 43 -23
v -18 42 -23
v -18 43 -23
v -11 42 -23
v -11 43 -23
v -10 42 -23
v -10 43 -23
v -1 41 -23
v -1 42 -23
v -1 43 -23
v 1 41 -23
v 1 42 -23
v 1 43 -23
v 10 42 -23
v 10 43 -23
v 11 42 -23
v 11 43 -23
v 18 42 -23
v 18 43 -23
v 19 42 -23
v 19 43 -23
v 28 42 -23
v 28 43 -23
v 29 42 -23
v 29 43 -23
v 38 26 -23
v 38 43 -23
v 45 21 -23
v 45 22 -23
v 46 0 -23
v 46 21 -23
v 46 22 -23
v 46 26 -23
v -46 0 23
v -40 0 23
v -39 0 23
v 39 0 23
v 40 0 23
v 46 0 23
v -40 0 22
v -39 0 22
v 39 0 22
v 40 0 22
v -40 0 21
v -39 0 21
v 39 0 21
v 40 0 21
v -40 0 -21
v -39 0 -21
v 39 0 -21
v 40 0 -21
v -40 0 -22
v -39 0 -22
v 39 0 -22
v 40 0 -22
v -46 0 -23
v 46 0 -23
v -37 13 23
v -1 13 23
v 1 13 23
v 37 13 23
v -37 13 22
v -1 13 22
v 1 13 22
v 37 13 22
v -46 22 23
v -39 22 23
v 39 22 23
v 46 22 23
v -45 22 22
v -39 22 22
v 39 22 22
v 45 22 22
v -45 22 -22
v 45 22 -22
v -46 22 -23
v -45 22 -23
v 45 22 -23
v 46 22 -23
v -38 12 23
v 38 12 23
v -38 12 22
v 38 12 22
v -38 13 22
v -37 13 22
v -1 13 22
v 1 13 22
v 37 13 22
v 38 13 22
v -38 13 21
v -37 13 21
v 37 13 21
v 38 13 21
v -38 13 20
v 38 13 20
v -38 13 -1
v -37 13 -1
v -1 13 -1
v 1 13 -1
v 37 13 -1
v 38 13 -1
v -1 17 -1
v 1 17 -1
v -1 17 -2
v 1 17 -2
v -37 19 23
v -1 19 23
v 1 19 23
v 37 19 23
v -19 19 -0
v -18 19 -0
v -11 19 -0
v -10 19 -0
v 10 19 -0
v 11 19 -0
v 18 19 -0
v 19 19 -0
v -37 19 -1
v -29 19 -1
v -28 19 -1
v -19 19 -1
v -18 19 -1
v -11 19 -1
v -10 19 -1
v -1 19 -1
v 1 19 -1
v 10 19 -1
v 11 19 -1
v 18 19 -1
v 19 19 -1
v 28 19 -1
v 29 19 -1
v 37 19 -1
v -46 21 23
v -40 21 23
v 40 21 23
v 46 21 23
v -45 21 22
v -40 21 22
v 40 21 22
v 45 21 22
v -45 21 -22
v 45 21 -22
v -46 21 -23
v -45 21 -23
v 45 21 -23
v 46 21 -23
v -46 26 23
v -38 26 23
v 38 26 23
v 46 26 23
v -38 26 -1
v 38 26 -1
v -46 26 -23
v -38 26 -23
v 38 26 -23
v 46 26 -23
v -1 42 -2
v 1 42 -2
v -1 42 -23
v 1 42 -23
v -38 43 -1
v -29 43 -1
v -28 43 -1
v -19 43 -1
v -18 43 -1
v -11 43 -1
v -10 43 -1
v -1 43 -1
v 1 43 -1
v 10 43 -1
v 11 43 -1
v 18 43 -1
v 19 43 -1
v 28 43 -1
v 29 43 -1
v 38 43 -1
v -38 43 -23
v -29 43 -23
v -28 43 -23
v -19 43 -23
v -18 43 -23
v -11 43 -23
v -10 43 -23
v -1 43 -23
v 1 43 -23
v 10 43 -23
v 11 43 -23
v 18 43 -23
v 19 43 -23
v 28 43 -23
v 29 43 -23
v 38 43 -23

# faces
f 3/4/1 2/4/1 1/4/1
f 4/4/1 2/4/1 3/4/1
f 7/4/1 6/4/1 5/4/1
f 8/4/1 6/4/1 7/4/1
f 12/5/1 10/5/1 9/5/1
f 13/4/1 11/4/1 10/4/1
f 13/5/1 10/5/1 12/5/1
f 14/4/1 11/4/1 13/4/1
f 17/4/1 16/4/1 15/4/1
f 18/4/1 16/4/1 17/4/1
f 21/4/1 20/4/1 19/4/1
f 22/4/1 20/4/1 21/4/1
f 27/4/1 24/4/1 23/4/1
f 27/4/1 26/4/1 25/4/1
f 27/4/1 25/4/1 24/4/1
f 28/4/1 26/4/1 27/4/1
f 32/4/1 30/4/1 29/4/1
f 32/4/1 31/4/1 30/4/1
f 34/4/1 32/4/1 29/4/1
f 34/4/1 33/4/1 32/4/1
f 35/4/1 33/4/1 34/4/1
f 36/4/1 33/4/1 35/4/1
f 38/4/1 36/4/1 35/4/1
f 38/4/1 37/4/1 36/4/1
f 39/4/1 37/4/1 38/4/1
f 42/4/1 41/4/1 40/4/1
f 46/4/1 43/4/1 42/4/1
f 46/2/1 45/2/1 44/2/1
f 46/4/1 44/4/1 43/4/1
f 47/2/1 45/2/1 46/2/1
f 48/4/1 42/4/1 40/4/1
f 48/4/1 46/4/1 42/4/1
f 48/4/1 47/4/1 46/4/1
f 49/4/1 47/4/1 48/4/1
f 52/4/1 51/4/1 50/4/1
f 53/4/1 51/4/1 52/4/1
f 54/4/2 55/4/2 56/4/2
f 56/4/2 55/4/2 57/4/2
f 58/4/2 59/4/2 60/4/2
f 60/4/2 61/4/2 64/4/2
f 62/2/2 63/2/2 64/2/2
f 61/4/2 62/4/2 64/4/2
f 64/2/2 63/2/2 65/2/2
f 58/4/2 60/4/2 66/4/2
f 60/4/2 64/4/2 66/4/2
f 64/4/2 65/4/2 66/4/2
f 66/4/2 65/4/2 67/4/2
f 68/4/2 69/4/2 71/4/2
f 69/4/2 70/4/2 71/4/2
f 68/4/2 71/4/2 73/4/2
f 71/4/2 72/4/2 73/4/2
f 73/4/2 72/4/2 74/4/2
f 74/4/2 72/4/2 75/4/2
f 74/4/2 75/4/2 77/4/2
f 75/4/2 76/4/2 77/4/2
f 77/4/2 76/4/2 78/4/2
f 79/4/2 80/4/2 83/4/2
f 81/4/2 82/4/2 83/4/2
f 80/4/2 81/4/2 83/4/2
f 83/4/2 82/4/2 84/4/2
f 85/4/2 86/4/2 87/4/2
f 87/4/2 86/4/2 88/4/2
f 89/4/2 90/4/2 91/4/2
f 91/4/2 90/4/2 92/4/2
f 93/5/2 94/5/2 96/5/2
f 94/4/2 95/4/2 97/4/2
f 96/5/2 94/5/2 97/5/2
f 97/4/2 95/4/2 98/4/2
f 99/4/2 100/4/2 101/4/2
f 101/4/2 100/4/2 102/4/2
f 103/4/2 104/4/2 105/4/2
f 105/4/2 104/4/2 106/4/2
f 111/4/3 108/4/3 107/4/3
f 112/4/3 108/4/3 111/4/3
f 114/4/3 110/4/3 109/4/3
f 115/4/3 114/4/3 113/4/3
f 116/4/3 110/4/3 114/4/3
f 116/4/3 114/4/3 115/4/3
f 119/4/3 118/4/3 117/4/3
f 120/4/3 118/4/3 119/4/3
f 123/4/3 122/4/3 121/4/3
f 124/4/3 122/4/3 123/4/3
f 125/4/3 115/4/3 113/4/3
f 127/4/3 125/4/3 113/4/3
f 127/4/3 126/4/3 125/4/3
f 128/4/3 126/4/3 127/4/3
f 131/4/3 130/4/3 129/4/3
f 132/4/3 130/4/3 131/4/3
f 133/4/3 126/4/3 128/4/3
f 134/4/3 126/4/3 133/4/3
f 138/5/3 136/5/3 135/5/3
f 139/5/3 138/5/3 137/5/3
f 140/5/3 136/5/3 138/5/3
f 140/5/3 138/5/3 139/5/3
f 143/5/3 142/5/3 141/5/3
f 144/5/3 143/5/3 141/5/3
f 145/5/3 144/5/3 141/5/3
f 146/5/3 145/5/3 141/5/3
f 147/5/3 146/5/3 141/5/3
f 148/5/3 146/5/3 147/5/3
f 151/5/3 150/5/3 149/5/3
f 152/5/3 150/5/3 151/5/3
f 153/5/3 150/5/3 152/5/3
f 154/5/3 150/5/3 153/5/3
f 159/4/3 156/4/3 155/4/3
f 159/4/3 158/4/3 157/4/3
f 159/4/3 157/4/3 156/4/3
f 160/4/3 158/4/3 159/4/3
f 161/4/3 158/4/3 160/4/3
f 162/4/3 158/4/3 161/4/3
f 163/5/3 162/5/3 161/5/3
f 164/5/3 162/5/3 163/5/3
f 165/4/3 164/4/3 163/4/3
f 166/4/3 164/4/3 165/4/3
f 167/5/3 166/5/3 165/5/3
f 168/5/3 166/5/3 167/5/3
f 169/4/3 168/4/3 167/4/3
f 170/4/3 168/4/3 169/4/3
f 171/5/3 170/5/3 169/5/3
f 172/5/3 170/5/3 171/5/3
f 175/4/3 172/4/3 171/4/3
f 176/4/3 172/4/3 175/4/3
f 177/5/3 174/5/3 173/5/3
f 178/5/3 174/5/3 177/5/3
f 181/4/3 180/4/3 179/4/3
f 182/4/3 180/4/3 181/4/3
f 183/5/3 182/5/3 181/5/3
f 184/5/3 182/5/3 183/5/3
f 185/4/3 184/4/3 183/4/3
f 186/4/3 184/4/3 185/4/3
f 187/5/3 186/5/3 185/5/3
f 188/5/3 186/5/3 187/5/3
f 189/4/3 188/4/3 187/4/3
f 190/4/3 188/4/3 189/4/3
f 191/5/3 190/5/3 189/5/3
f 192/5/3 190/5/3 191/5/3
f 194/4/3 192/4/3 191/4/3
f 195/4/3 194/4/3 193/4/3
f 196/4/3 194/4/3 195/4/3
f 197/4/3 192/4/3 194/4/3
f 197/4/3 194/4/3 196/4/3
f 198/4/3 192/4/3 197/4/3
f 201/5/3 200/5/3 199/5/3
f 202/5/3 200/5/3 201/5/3
f 203/4/4 204/4/4 207/4/4
f 205/4/4 206/4/4 208/4/4
f 208/4/4 206/4/4 209/4/4
f 207/4/4 208/4/4 209/4/4
f 209/4/4 210/4/4 211/4/4
f 211/4/4 210/4/4 212/4/4
f 209/4/4 211/4/4 213/4/4
f 211/5/4 212/5/4 213/5/4
f 213/5/4 212/5/4 214/5/4
f 209/4/4 213/4/4 215/4/4
f 213/4/4 214/4/4 215/4/4
f 215/4/4 214/4/4 216/4/4
f 209/4/4 215/4/4 217/4/4
f 215/5/4 216/5/4 217/5/4
f 217/5/4 216/5/4 218/5/4
f 209/4/4 217/4/4 219/4/4
f 217/4/4 218/4/4 219/4/4
f 219/4/4 218/4/4 220/4/4
f 209/4/4 219/4/4 221/4/4
f 219/5/4 220/5/4 221/5/4
f 221/5/4 220/5/4 222/5/4
f 209/4/4 221/4/4 223/4/4
f 221/4/4 222/4/4 223/4/4
f 223/4/4 222/4/4 224/4/4
f 224/4/4 222/4/4 225/4/4
f 209/4/4 223/4/4 226/4/4
f 223/5/4 224/5/4 226/5/4
f 226/5/4 224/5/4 227/5/4
f 226/4/4 227/4/4 229/4/4
f 227/4/4 228/4/4 229/4/4
f 229/4/4 228/4/4 230/4/4
f 226/4/4 229/4/4 231/4/4
f 229/5/4 230/5/4 231/5/4
f 231/5/4 230/5/4 232/5/4
f 226/4/4 231/4/4 233/4/4
f 231/4/4 232/4/4 233/4/4
f 233/4/4 232/4/4 234/4/4
f 226/4/4 233/4/4 235/4/4
f 233/5/4 234/5/4 235/5/4
f 235/5/4 234/5/4 236/5/4
f 226/4/4 235/4/4 237/4/4
f 235/4/4 236/4/4 237/4/4
f 237/4/4 236/4/4 238/4/4
f 226/4/4 237/4/4 239/4/4
f 237/5/4 238/5/4 239/5/4
f 239/5/4 238/5/4 240/5/4
f 207/4/4 209/4/4 241/4/4
f 209/4/4 226/4/4 241/4/4
f 239/4/4 240/4/4 241/4/4
f 226/4/4 239/4/4 241/4/4
f 241/4/4 240/4/4 242/4/4
f 203/4/4 207/4/4 243/4/4
f 207/4/4 241/4/4 243/4/4
f 243/4/4 241/4/4 244/4/4
f 203/4/4 243/4/4 245/4/4
f 245/4/4 243/4/4 246/4/4
f 244/4/4 241/4/4 247/4/4
f 247/4/4 241/4/4 248/4/4
f 255/4/5 250/4/5 249/4/5
f 256/4/5 252/4/5 251/4/5
f 257/4/5 252/4/5 256/4/5
f 258/4/5 254/4/5 253/4/5
f 259/4/5 255/4/5 249/4/5
f 259/5/5 256/5/5 255/5/5
f 260/4/5 257/4/5 256/4/5
f 260/5/5 256/5/5 259/5/5
f 261/5/5 258/5/5 257/5/5
f 261/4/5 257/4/5 260/4/5
f 262/4/5 254/4/5 258/4/5
f 262/5/5 258/5/5 261/5/5
f 263/4/5 259/4/5 249/4/5
f 263/4/5 260/4/5 259/4/5
f 263/4/5 262/4/5 261/4/5
f 263/4/5 261/4/5 260/4/5
f 264/4/5 262/4/5 263/4/5
f 265/4/5 262/4/5 264/4/5
f 266/4/5 254/4/5 262/4/5
f 266/4/5 262/4/5 265/4/5
f 267/4/5 263/4/5 249/4/5
f 267/5/5 264/5/5 263/5/5
f 268/4/5 265/4/5 264/4/5
f 268/5/5 264/5/5 267/5/5
f 269/5/5 266/5/5 265/5/5
f 269/4/5 265/4/5 268/4/5
f 270/4/5 254/4/5 266/4/5
f 270/5/5 266/5/5 269/5/5
f 271/4/5 267/4/5 249/4/5
f 271/4/5 269/4/5 268/4/5
f 271/4/5 270/4/5 269/4/5
f 271/4/5 268/4/5 267/4/5
f 272/4/5 254/4/5 270/4/5
f 272/4/5 270/4/5 271/4/5
f 277/4/5 274/4/5 273/4/5
f 278/4/5 274/4/5 277/4/5
f 279/4/5 276/4/5 275/4/5
f 280/4/5 276/4/5 279/4/5
f 285/4/5 282/4/5 281/4/5
f 286/4/5 282/4/5 285/4/5
f 287/4/5 284/4/5 283/4/5
f 288/4/5 284/4/5 287/4/5
f 289/4/5 285/4/5 281/4/5
f 290/4/5 284/4/5 288/4/5
f 291/4/5 289/4/5 281/4/5
f 292/4/5 289/4/5 291/4/5
f 293/4/5 284/4/5 290/4/5
f 294/4/5 284/4/5 293/4/5
f 295/4/6 296/4/6 297/4/6
f 297/4/6 296/4/6 298/4/6
f 299/5/6 300/5/6 305/5/6
f 305/5/6 300/5/6 306/5/6
f 303/5/6 304/5/6 307/5/6
f 307/5/6 304/5/6 308/5/6
f 305/1/6 306/1/6 309/1/6
f 307/1/6 308/1/6 310/1/6
f 309/1/6 306/1/6 311/1/6
f 311/1/6 306/1/6 312/1/6
f 301/5/6 302/5/6 313/5/6
f 313/5/6 302/5/6 314/5/6
f 307/1/6 310/1/6 315/1/6
f 315/1/6 310/1/6 316/1/6
f 317/5/6 318/5/6 319/5/6
f 319/5/6 318/5/6 320/5/6
f 321/4/6 322/4/6 325/4/6
f 325/4/6 322/4/6 326/4/6
f 326/4/6 322/4/6 327/4/6
f 327/4/6 322/4/6 328/4/6
f 323/4/6 324/4/6 329/4/6
f 329/4/6 324/4/6 330/4/6
f 330/4/6 324/4/6 331/4/6
f 331/4/6 324/4/6 332/4/6
f 321/4/6 325/4/6 333/4/6
f 333/4/6 325/4/6 334/4/6
f 334/4/6 325/4/6 335/4/6
f 325/2/6 326/2/6 336/2/6
f 335/4/6 325/4/6 336/4/6
f 326/4/6 327/4/6 337/4/6
f 336/2/6 326/2/6 337/2/6
f 327/2/6 328/2/6 338/2/6
f 337/4/6 327/4/6 338/4/6
f 328/4/6 322/4/6 339/4/6
f 338/2/6 328/2/6 339/2/6
f 339/4/6 322/4/6 340/4/6
f 323/4/6 329/4/6 341/4/6
f 329/2/6 330/2/6 342/2/6
f 341/4/6 329/4/6 342/4/6
f 330/4/6 331/4/6 343/4/6
f 342/2/6 330/2/6 343/2/6
f 331/2/6 332/2/6 344/2/6
f 343/4/6 331/4/6 344/4/6
f 332/4/6 324/4/6 345/4/6
f 344/2/6 332/2/6 345/2/6
f 345/4/6 324/4/6 346/4/6
f 346/4/6 324/4/6 347/4/6
f 347/4/6 324/4/6 348/4/6
f 349/4/6 350/4/6 353/4/6
f 353/4/6 350/4/6 354/4/6
f 351/4/6 352/4/6 355/4/6
f 355/4/6 352/4/6 356/4/6
f 349/4/6 353/4/6 357/4/6
f 356/4/6 352/4/6 358/4/6
f 349/4/6 357/4/6 359/4/6
f 359/4/6 357/4/6 360/4/6
f 358/4/6 352/4/6 361/4/6
f 361/4/6 352/4/6 362/4/6
f 363/4/6 364/4/6 367/4/6
f 365/4/6 366/4/6 368/4/6
f 363/4/6 367/4/6 369/4/6
f 369/4/6 367/4/6 370/4/6
f 368/4/6 366/4/6 371/4/6
f 371/4/6 366/4/6 372/4/6
f 373/5/6 374/5/6 375/5/6
f 375/5/6 374/5/6 376/5/6
f 377/4/6 378/4/6 393/4/6
f 378/5/6 379/5/6 394/5/6
f 393/4/6 378/4/6 394/4/6
f 379/4/6 380/4/6 395/4/6
f 394/5/6 379/5/6 395/5/6
f 380/5/6 381/5/6 396/5/6
f 395/4/6 380/4/6 396/4/6
f 381/4/6 382/4/6 397/4/6
f 396/5/6 381/5/6 397/5/6
f 382/5/6 383/5/6 398/5/6
f 397/4/6 382/4/6 398/4/6
f 383/4/6 384/4/6 399/4/6
f 398/5/6 383/5/6 399/5/6
f 399/4/6 384/4/6 400/4/6
f 385/4/6 386/4/6 401/4/6
f 386/5/6 387/5/6 402/5/6
f 401/4/6 386/4/6 402/4/6
f 387/4/6 388/4/6 403/4/6
f 402/5/6 387/5/6 403/5/6
f 388/5/6 389/5/6 404/5/6
f 403/4/6 388/4/6 404/4/6
f 389/4/6 390/4/6 405/4/6
f 404/5/6 389/5/6 405/5/6
f 390/5/6 391/5/6 406/5/6
f 405/4/6 390/4/6 406/4/6
f 391/4/6 392/4/6 407/4/6
f 406/5/6 391/5/6 407/5/6
f 407/4/6 392/4/6 408/4/6
