# MagicaVoxel @ Ephtracy

# material
mtllib wardrobe.mtl
usemtl palette

# normals
vn -1 0 0
vn 1 0 0
vn 0 0 1
vn 0 0 -1
vn 0 -1 0
vn 0 1 0

# texcoords
vt 0.251953 0.5
vt 0.306641 0.5
vt 0.970703 0.5
vt 0.974609 0.5
vt 0.978516 0.5

# verts
v -46 0 21
v -46 0 -21
v -46 1 21
v -46 1 -20
v -46 126 21
v -46 126 -20
v -46 126 -21
v -42 0 21
v -42 0 20
v -42 122 21
v -42 122 20
v -16 64 22
v -16 64 21
v -16 70 22
v -16 70 21
v -5 64 22
v -5 64 21
v -5 66 22
v -5 66 21
v -5 68 22
v -5 68 21
v -5 70 22
v -5 70 21
v 1 0 21
v 1 0 20
v 1 122 21
v 1 122 20
v 3 64 22
v 3 64 21
v 3 70 22
v 3 70 21
v 14 64 22
v 14 64 21
v 14 66 22
v 14 66 21
v 14 68 22
v 14 68 21
v 14 70 22
v 14 70 21
v 44 0 21
v 44 0 20
v 44 1 21
v 44 1 20
v 44 124 21
v 44 124 20
v -44 0 21
v -44 0 20
v -44 1 21
v -44 1 20
v -44 124 21
v -44 124 20
v -14 64 22
v -14 64 21
v -14 66 22
v -14 66 21
v -14 68 22
v -14 68 21
v -14 70 22
v -14 70 21
v -3 64 22
v -3 64 21
v -3 70 22
v -3 70 21
v -1 0 21
v -1 0 20
v -1 122 21
v -1 122 20
v 5 64 22
v 5 64 21
v 5 66 22
v 5 66 21
v 5 68 22
v 5 68 21
v 5 70 22
v 5 70 21
v 16 64 22
v 16 64 21
v 16 70 22
v 16 70 21
v 42 0 21
v 42 0 20
v 42 122 21
v 42 122 20
v 46 0 21
v 46 0 -21
v 46 1 21
v 46 1 -20
v 46 126 21
v 46 126 -20
v 46 126 -21
v -16 64 22
v -16 70 22
v -14 64 22
v -14 66 22
v -14 68 22
v -14 70 22
v -5 64 22
v -5 66 22
v -5 68 22
v -5 70 22
v -3 64 22
v -3 70 22
v 3 64 22
v 3 70 22
v 5 64 22
v 5 66 22
v 5 68 22
v 5 70 22
v 14 64 22
v 14 66 22
v 14 68 22
v 14 70 22
v 16 64 22
v 16 70 22
v -46 0 21
v -46 1 21
v -46 126 21
v -45 1 21
v -45 125 21
v -44 0 21
v -44 1 21
v -44 124 21
v -42 0 21
v -42 122 21
v -16 64 21
v -16 70 21
v -14 64 21
v -14 66 21
v -14 68 21
v -14 70 21
v -5 64 21
v -5 66 21
v -5 68 21
v -5 70 21
v -3 64 21
v -3 70 21
v -1 0 21
v -1 122 21
v 1 0 21
v 1 122 21
v 3 64 21
v 3 70 21
v 5 64 21
v 5 66 21
v 5 68 21
v 5 70 21
v 14 64 21
v 14 66 21
v 14 68 21
v 14 70 21
v 16 64 21
v 16 70 21
v 42 0 21
v 42 122 21
v 44 0 21
v 44 1 21
v 44 124 21
v 45 1 21
v 45 125 21
v 46 0 21
v 46 1 21
v 46 126 21
v -44 0 20
v -44 1 20
v -44 124 20
v -42 0 20
v -42 122 20
v -1 0 20
v -1 122 20
v 1 0 20
v 1 122 20
v 42 0 20
v 42 122 20
v 44 0 20
v 44 1 20
v 44 124 20
v -46 0 -21
v -46 126 -21
v 46 0 -21
v 46 126 -21
v -46 0 21
v -44 0 21
v -42 0 21
v -1 0 21
v 1 0 21
v 42 0 21
v 44 0 21
v 46 0 21
v -44 0 20
v -42 0 20
v -1 0 20
v 1 0 20
v 42 0 20
v 44 0 20
v -46 0 -21
v 46 0 -21
v -16 64 22
v -14 64 22
v -5 64 22
v -3 64 22
v 3 64 22
v 5 64 22
v 14 64 22
v 16 64 22
v -16 64 21
v -14 64 21
v -5 64 21
v -3 64 21
v 3 64 21
v 5 64 21
v 14 64 21
v 16 64 21
v -14 66 22
v -5 66 22
v 5 66 22
v 14 66 22
v -14 66 21
v -5 66 21
v 5 66 21
v 14 66 21
v -44 124 21
v 44 124 21
v -44 124 20
v 44 124 20
v -14 68 22
v -5 68 22
v 5 68 22
v 14 68 22
v -14 68 21
v -5 68 21
v 5 68 21
v 14 68 21
v -16 70 22
v -14 70 22
v -5 70 22
v -3 70 22
v 3 70 22
v 5 70 22
v 14 70 22
v 16 70 22
v -16 70 21
v -14 70 21
v -5 70 21
v -3 70 21
v 3 70 21
v 5 70 21
v 14 70 21
v 16 70 21
v -42 122 21
v -1 122 21
v 1 122 21
v 42 122 21
v -42 122 20
v -1 122 20
v 1 122 20
v 42 122 20
v -46 126 21
v 46 126 21
v -46 126 -20
v 46 126 -20
v -46 126 -21
v 46 126 -21

# faces
f 3/4/1 2/4/1 1/4/1
f 4/4/1 2/4/1 3/4/1
f 5/3/1 4/3/1 3/3/1
f 6/4/1 2/4/1 4/4/1
f 6/3/1 4/3/1 5/3/1
f 7/4/1 2/4/1 6/4/1
f 10/3/1 9/3/1 8/3/1
f 11/3/1 9/3/1 10/3/1
f 14/5/1 13/5/1 12/5/1
f 15/5/1 13/5/1 14/5/1
f 18/5/1 17/5/1 16/5/1
f 19/5/1 17/5/1 18/5/1
f 22/5/1 21/5/1 20/5/1
f 23/5/1 21/5/1 22/5/1
f 26/3/1 25/3/1 24/3/1
f 27/3/1 25/3/1 26/3/1
f 30/5/1 29/5/1 28/5/1
f 31/5/1 29/5/1 30/5/1
f 34/5/1 33/5/1 32/5/1
f 35/5/1 33/5/1 34/5/1
f 38/5/1 37/5/1 36/5/1
f 39/5/1 37/5/1 38/5/1
f 42/4/1 41/4/1 40/4/1
f 43/4/1 41/4/1 42/4/1
f 44/1/1 43/1/1 42/1/1
f 45/1/1 43/1/1 44/1/1
f 46/4/2 47/4/2 48/4/2
f 48/4/2 47/4/2 49/4/2
f 48/1/2 49/1/2 50/1/2
f 50/1/2 49/1/2 51/1/2
f 52/5/2 53/5/2 54/5/2
f 54/5/2 53/5/2 55/5/2
f 56/5/2 57/5/2 58/5/2
f 58/5/2 57/5/2 59/5/2
f 60/5/2 61/5/2 62/5/2
f 62/5/2 61/5/2 63/5/2
f 64/3/2 65/3/2 66/3/2
f 66/3/2 65/3/2 67/3/2
f 68/5/2 69/5/2 70/5/2
f 70/5/2 69/5/2 71/5/2
f 72/5/2 73/5/2 74/5/2
f 74/5/2 73/5/2 75/5/2
f 76/5/2 77/5/2 78/5/2
f 78/5/2 77/5/2 79/5/2
f 80/3/2 81/3/2 82/3/2
f 82/3/2 81/3/2 83/3/2
f 84/4/2 85/4/2 86/4/2
f 86/4/2 85/4/2 87/4/2
f 86/3/2 87/3/2 88/3/2
f 87/4/2 85/4/2 89/4/2
f 88/3/2 87/3/2 89/3/2
f 89/4/2 85/4/2 90/4/2
f 93/5/3 92/5/3 91/5/3
f 94/5/3 92/5/3 93/5/3
f 95/5/3 92/5/3 94/5/3
f 96/5/3 92/5/3 95/5/3
f 98/5/3 95/5/3 94/5/3
f 99/5/3 95/5/3 98/5/3
f 101/5/3 98/5/3 97/5/3
f 101/5/3 100/5/3 99/5/3
f 101/5/3 99/5/3 98/5/3
f 102/5/3 100/5/3 101/5/3
f 105/5/3 104/5/3 103/5/3
f 106/5/3 104/5/3 105/5/3
f 107/5/3 104/5/3 106/5/3
f 108/5/3 104/5/3 107/5/3
f 110/5/3 107/5/3 106/5/3
f 111/5/3 107/5/3 110/5/3
f 113/5/3 110/5/3 109/5/3
f 113/5/3 112/5/3 111/5/3
f 113/5/3 111/5/3 110/5/3
f 114/5/3 112/5/3 113/5/3
f 118/4/3 116/4/3 115/4/3
f 118/3/3 117/3/3 116/3/3
f 119/3/3 117/3/3 118/3/3
f 120/4/3 118/4/3 115/4/3
f 121/1/3 119/1/3 118/1/3
f 121/4/3 118/4/3 120/4/3
f 122/1/3 119/1/3 121/1/3
f 125/3/3 124/3/3 123/3/3
f 126/3/3 124/3/3 125/3/3
f 127/3/3 125/3/3 123/3/3
f 130/3/3 124/3/3 126/3/3
f 131/3/3 128/3/3 127/3/3
f 131/3/3 127/3/3 123/3/3
f 132/3/3 128/3/3 131/3/3
f 133/3/3 130/3/3 129/3/3
f 134/3/3 124/3/3 130/3/3
f 134/3/3 130/3/3 133/3/3
f 135/3/3 131/3/3 123/3/3
f 136/3/3 124/3/3 134/3/3
f 137/3/3 135/3/3 123/3/3
f 137/3/3 136/3/3 135/3/3
f 138/3/3 124/3/3 136/3/3
f 138/3/3 136/3/3 137/3/3
f 141/3/3 140/3/3 139/3/3
f 142/3/3 140/3/3 141/3/3
f 143/3/3 141/3/3 139/3/3
f 146/3/3 140/3/3 142/3/3
f 147/3/3 144/3/3 143/3/3
f 147/3/3 143/3/3 139/3/3
f 148/3/3 144/3/3 147/3/3
f 149/3/3 146/3/3 145/3/3
f 150/3/3 140/3/3 146/3/3
f 150/3/3 146/3/3 149/3/3
f 151/3/3 147/3/3 139/3/3
f 152/3/3 140/3/3 150/3/3
f 153/3/3 151/3/3 139/3/3
f 153/3/3 152/3/3 151/3/3
f 154/3/3 140/3/3 152/3/3
f 154/3/3 152/3/3 153/3/3
f 157/1/3 119/1/3 122/1/3
f 158/4/3 156/4/3 155/4/3
f 158/1/3 157/1/3 156/1/3
f 159/3/3 117/3/3 119/3/3
f 159/1/3 157/1/3 158/1/3
f 159/1/3 119/1/3 157/1/3
f 160/4/3 158/4/3 155/4/3
f 161/3/3 159/3/3 158/3/3
f 161/4/3 158/4/3 160/4/3
f 162/3/3 117/3/3 159/3/3
f 162/3/3 159/3/3 161/3/3
f 166/4/3 164/4/3 163/4/3
f 166/4/3 165/4/3 164/4/3
f 167/4/3 165/4/3 166/4/3
f 169/4/3 165/4/3 167/4/3
f 170/4/3 169/4/3 168/4/3
f 171/4/3 165/4/3 169/4/3
f 171/4/3 169/4/3 170/4/3
f 173/4/3 165/4/3 171/4/3
f 174/4/3 173/4/3 172/4/3
f 175/4/3 173/4/3 174/4/3
f 176/4/3 165/4/3 173/4/3
f 176/4/3 173/4/3 175/4/3
f 177/4/4 178/4/4 179/4/4
f 179/4/4 178/4/4 180/4/4
f 189/4/5 182/4/5 181/4/5
f 190/3/5 184/3/5 183/3/5
f 191/3/5 184/3/5 190/3/5
f 192/3/5 186/3/5 185/3/5
f 193/3/5 186/3/5 192/3/5
f 194/4/5 188/4/5 187/4/5
f 195/4/5 193/4/5 192/4/5
f 195/4/5 194/4/5 193/4/5
f 195/4/5 189/4/5 181/4/5
f 195/4/5 191/4/5 190/4/5
f 195/4/5 192/4/5 191/4/5
f 195/4/5 190/4/5 189/4/5
f 196/4/5 188/4/5 194/4/5
f 196/4/5 194/4/5 195/4/5
f 205/5/5 198/5/5 197/5/5
f 206/5/5 198/5/5 205/5/5
f 207/5/5 200/5/5 199/5/5
f 208/5/5 200/5/5 207/5/5
f 209/5/5 202/5/5 201/5/5
f 210/5/5 202/5/5 209/5/5
f 211/5/5 204/5/5 203/5/5
f 212/5/5 204/5/5 211/5/5
f 217/5/5 214/5/5 213/5/5
f 218/5/5 214/5/5 217/5/5
f 219/5/5 216/5/5 215/5/5
f 220/5/5 216/5/5 219/5/5
f 223/1/5 222/1/5 221/1/5
f 224/1/5 222/1/5 223/1/5
f 225/5/6 226/5/6 229/5/6
f 229/5/6 226/5/6 230/5/6
f 227/5/6 228/5/6 231/5/6
f 231/5/6 228/5/6 232/5/6
f 233/5/6 234/5/6 241/5/6
f 241/5/6 234/5/6 242/5/6
f 235/5/6 236/5/6 243/5/6
f 243/5/6 236/5/6 244/5/6
f 237/5/6 238/5/6 245/5/6
f 245/5/6 238/5/6 246/5/6
f 239/5/6 240/5/6 247/5/6
f 247/5/6 240/5/6 248/5/6
f 249/3/6 250/3/6 253/3/6
f 253/3/6 250/3/6 254/3/6
f 251/3/6 252/3/6 255/3/6
f 255/3/6 252/3/6 256/3/6
f 257/3/6 258/3/6 259/3/6
f 259/3/6 258/3/6 260/3/6
f 259/4/6 260/4/6 261/4/6
f 261/4/6 260/4/6 262/4/6
